<svg width="578" height="434" viewBox="0 0 578 434" fill="none" xmlns="http://www.w3.org/2000/svg">
<g filter="url(#filter0_d)">
<path fill-rule="evenodd" clip-rule="evenodd" d="M395.543 183.519V135.564H396.281V184.258H310.746V183.519H395.543Z" fill="black"/>
<path opacity="0.3" d="M514.229 55.2806H474.069V346.012H514.229V55.2806Z" fill="black"/>
<path opacity="0.3" d="M467.202 55.2806H427.041V346.012H467.202V55.2806Z" fill="black"/>
<path fill-rule="evenodd" clip-rule="evenodd" d="M230.888 101.779H287.67V176.132H310.745V176.87H286.932V102.518H230.888V101.779Z" fill="black"/>
<path fill-rule="evenodd" clip-rule="evenodd" d="M395.543 128.177V91.7617H396.281V128.177H395.543Z" fill="black"/>
<path d="M208.119 164.404H59.5144V184.2H208.119V164.404Z" fill="black"/>
<path d="M89.8298 377.369H299.798" stroke="black" stroke-width="1.01001" stroke-miterlimit="10" stroke-linecap="round"/>
<path d="M37.9426 377.369H77.427" stroke="black" stroke-width="1.01001" stroke-miterlimit="10" stroke-linecap="round"/>
<path d="M38.2417 213.296H182.952" stroke="black" stroke-width="1.24375" stroke-miterlimit="10"/>
<path d="M541.04 372.936C544.509 368.84 542.999 359.616 541.203 359.616C538.251 359.616 535.723 370.256 535.723 370.256C535.723 370.256 532.078 356.126 524.699 349.477C524.699 349.477 523.147 361.883 524.623 368.532C524.623 368.532 520.133 358.162 514.23 360.378C514.23 360.378 518.815 377.012 519.858 377.739" stroke="black" stroke-width="1.01001" stroke-miterlimit="10" stroke-linecap="round"/>
<path d="M70.5214 377.451C70.5214 377.451 65.9147 363.248 67.6093 352.429C73.6723 355.995 76.2711 360.041 76.2711 360.041C76.2711 360.041 76.8968 356.126 84.2757 349.477C84.2757 349.477 85.8276 361.883 84.3515 368.532C87.0775 364.773 90.2594 361.656 94.7447 360.378C94.7447 360.378 91.885 377.124 84.7612 377.369" stroke="black" stroke-width="1.01001" stroke-miterlimit="10" stroke-linecap="round"/>
<path fill-rule="evenodd" clip-rule="evenodd" d="M395.911 65.8882C385.258 65.8882 376.621 74.535 376.621 85.2005C376.621 95.8661 385.258 104.513 395.911 104.513C406.565 104.513 415.201 95.8661 415.201 85.2005C415.201 74.535 406.565 65.8882 395.911 65.8882ZM375.883 85.2005C375.883 74.1263 384.85 65.1495 395.911 65.1495C406.972 65.1495 415.939 74.1263 415.939 85.2005C415.939 96.274 406.972 105.251 395.911 105.251C384.85 105.251 375.883 96.274 375.883 85.2005Z" fill="black"/>
<path d="M395.911 91.0267C399.125 91.0267 401.73 88.4183 401.73 85.2009C401.73 81.9836 399.125 79.3752 395.911 79.3752C392.697 79.3752 390.092 81.9836 390.092 85.2009C390.092 88.4183 392.697 91.0267 395.911 91.0267Z" fill="black"/>
<path fill-rule="evenodd" clip-rule="evenodd" d="M261.576 133.868C258.566 133.868 256.126 136.311 256.126 139.325C256.126 142.338 258.566 144.781 261.576 144.781C264.586 144.781 267.026 142.338 267.026 139.325C267.026 136.311 264.586 133.868 261.576 133.868ZM255.388 139.325C255.388 135.903 258.158 133.129 261.576 133.129C264.994 133.129 267.764 135.903 267.764 139.325C267.764 142.746 264.994 145.519 261.576 145.519C258.158 145.519 255.388 142.746 255.388 139.325Z" fill="black"/>
<path fill-rule="evenodd" clip-rule="evenodd" d="M301.306 87.3633H269.281V86.6248H302.044V139.324H301.306V87.3633Z" fill="black"/>
<path d="M355.649 243.58L352.024 246.627L329.024 138.184L334.349 137.776C336.177 137.636 337.82 138.887 338.172 140.688L357.362 238.722C357.717 240.534 357.06 242.394 355.649 243.58Z" fill="black"/>
<path d="M395.911 249.39C395.911 249.39 384.636 240.186 381.27 240.427C377.905 240.669 366.091 252.828 367.346 256.658C368.601 260.486 373.185 260.486 373.185 260.486C375.474 260.486 377.599 259.249 378.685 257.233C379.973 254.844 381.782 252.148 383.052 252.957C385.23 254.344 383.397 260.486 384.908 260.486C386.418 260.486 395.911 257.515 395.911 257.515V249.39Z" fill="#B08566"/>
<path d="M474.068 213.436L461.349 244.994C460.128 248.66 455.15 255.834 451.327 255.296L405.226 251.094" stroke="#111010" stroke-width="39.8" stroke-miterlimit="10" stroke-linecap="round"/>
<path d="M467.244 196.411C467.643 193.034 467.849 190.042 467.554 188.861C466.934 186.364 461.149 186.785 458.19 187.169C457.15 187.302 456.456 187.435 456.456 187.435L457.688 185.3V185.292L457.696 185.285L468.226 167.068L486.488 164.541L480.902 176.036C479.301 184.163 488.104 196.772 488.104 196.772L465.149 210.158C465.149 210.158 466.514 202.623 467.244 196.411Z" fill="#E8E8E8"/>
<path d="M476.092 181.371C476.092 181.371 474.018 195.334 467.244 196.412C467.643 193.036 467.85 190.044 467.554 188.862C466.934 186.365 461.149 186.787 458.19 187.171L457.688 185.302V185.294L457.696 185.287L467.798 179.768L476.092 181.371Z" fill="#7D4921"/>
<path d="M447.122 165.067C446.72 165.067 446.332 164.846 446.136 164.463C445.857 163.919 446.072 163.251 446.617 162.972L449.951 161.263C450.494 160.984 451.162 161.199 451.441 161.744C451.719 162.289 451.503 162.957 450.959 163.235L447.626 164.945C447.464 165.028 447.292 165.067 447.122 165.067Z" fill="black"/>
<path d="M449.73 173.105C447.582 173.105 445.792 170.097 445.538 166.004C445.423 164.134 445.665 162.342 446.221 160.958C446.849 159.396 447.822 158.496 448.962 158.426C451.167 158.286 453.034 161.339 453.295 165.522C453.555 169.705 452.084 172.964 449.873 173.101C449.825 173.104 449.777 173.105 449.73 173.105ZM449.101 159.899C449.084 159.899 449.069 159.899 449.053 159.9C448.529 159.933 447.982 160.534 447.59 161.51C447.114 162.694 446.908 164.258 447.012 165.913C447.22 169.269 448.625 171.709 449.782 171.626C450.917 171.556 452.031 168.969 451.822 165.614C451.616 162.306 450.228 159.899 449.101 159.899Z" fill="#91826C"/>
<path d="M454.552 145.603C454.552 145.603 452.52 155.69 456.514 157.127C460.508 158.564 480.442 150.075 480.442 150.075L460.183 143.873L454.552 145.603Z" fill="#91826C"/>
<path d="M456.275 153.264C456.275 153.264 447.729 169.535 454.498 186.853C454.9 187.884 455.909 188.549 457.014 188.52C460.805 188.419 471.601 186.109 477.288 181.866L478.696 176.296L486.996 163.425C486.996 163.425 489.771 152.021 480.443 150.074C471.115 148.128 458.608 145.994 456.275 153.264Z" fill="#E8E8E8"/>
<path d="M453.467 180.214C456.479 180.845 457.691 177.983 457.691 177.983" stroke="black" stroke-width="1.24375" stroke-miterlimit="10"/>
<path d="M490.926 165.993C493.021 172.391 480.463 180.421 477.917 174.341C477.784 174.024 478.16 172.842 478.647 171.313C479.85 162.861 472.486 163.763 472.198 166.474C472.125 167.161 470.243 172.421 468.147 171.172C466.812 170.382 467.543 168.343 467.24 163.105C465.048 161.399 463.853 158.178 463.203 155.289C458.577 154.727 454.135 153.782 452.799 152.859C450.881 151.536 446.387 145.265 451.147 136.687C455.212 129.367 487.17 140.182 487.672 148.286C494.94 147.835 490.129 162.839 490.704 165.284C490.778 165.521 490.852 165.757 490.926 165.993Z" fill="black"/>
<path d="M453.188 164.543C453.188 164.543 447.17 173.511 447.455 174.741C447.739 175.971 453.468 175.127 453.468 175.127" fill="#E8E8E8"/>
<path d="M472.595 168.915C472.595 168.915 475.602 163.786 477.206 167.686C478.485 170.794 475.757 176.406 473.892 175.628C472.069 174.867 474.733 171.154 474.733 171.154" stroke="black" stroke-width="1.24375" stroke-miterlimit="10"/>
<path d="M462.434 166.086C462.264 166.086 462.093 166.047 461.931 165.964L457.804 163.849C457.26 163.569 457.044 162.902 457.323 162.357C457.602 161.812 458.27 161.597 458.813 161.876L462.939 163.991C463.483 164.27 463.699 164.938 463.421 165.483C463.224 165.865 462.837 166.086 462.434 166.086Z" fill="black"/>
<path d="M458.568 175.962C455.886 175.962 453.621 172.817 453.362 168.668C453.24 166.69 453.608 164.793 454.397 163.324C455.238 161.76 456.459 160.85 457.838 160.764C460.609 160.598 462.991 163.794 463.256 168.052C463.52 172.311 461.554 175.782 458.782 175.956C458.71 175.96 458.638 175.962 458.568 175.962ZM458.044 162.001C458 162.001 457.958 162.003 457.914 162.005C456.981 162.063 456.12 162.741 455.49 163.913C454.808 165.18 454.493 166.842 454.602 168.591C454.816 172.035 456.696 174.849 458.705 174.714C460.714 174.589 462.231 171.574 462.017 168.129C461.808 164.759 460.004 162.001 458.044 162.001Z" fill="#91826C"/>
<path d="M458.003 169.308C458.621 169.308 459.124 168.806 459.124 168.187C459.124 167.567 458.621 167.065 458.003 167.065C457.384 167.065 456.882 167.567 456.882 168.187C456.882 168.806 457.384 169.308 458.003 169.308Z" fill="black"/>
<path d="M449.416 167.859C449.944 167.859 450.372 167.43 450.372 166.901C450.372 166.372 449.944 165.944 449.416 165.944C448.888 165.944 448.459 166.372 448.459 166.901C448.459 167.43 448.888 167.859 449.416 167.859Z" fill="black"/>
<path d="M474.069 169.167C474.069 169.167 474.623 168.435 475.372 168.759" stroke="black" stroke-width="1.24375" stroke-miterlimit="10"/>
<path d="M339.331 259.723H335.642L328.393 211.156L341.069 202.142V204.335L332.083 212.685L339.331 259.723Z" fill="black"/>
<path d="M434.833 349.477L443.675 376.554C443.675 376.554 401.644 377.58 400.972 376.009C400.299 374.437 420.348 366.164 432.461 367.04L427.271 355.464L434.833 349.477Z" fill="black"/>
<path fill-rule="evenodd" clip-rule="evenodd" d="M387.634 285.202C382.477 273.395 393.312 260.88 405.719 264.315L479.711 284.802C485.603 286.433 489.058 292.537 487.429 298.436C485.799 304.334 479.703 307.794 473.811 306.162L414.134 289.639L439.868 344.787C442.456 350.331 440.063 356.927 434.525 359.517C428.987 362.107 422.4 359.712 419.812 354.167L387.689 285.328L387.634 285.202Z" fill="black"/>
<path fill-rule="evenodd" clip-rule="evenodd" d="M387.634 285.202C382.477 273.395 393.312 260.88 405.719 264.315L479.711 284.802C485.603 286.433 489.058 292.537 487.429 298.436C485.799 304.334 479.703 307.794 473.811 306.162L414.134 289.639L439.868 344.787C442.456 350.331 440.063 356.927 434.525 359.517C428.987 362.107 422.4 359.712 419.812 354.167L387.689 285.328L387.634 285.202Z" fill="black" fill-opacity="0.15"/>
<path d="M358.689 361.745L339.659 375.152C339.659 375.152 336.818 371.821 332.804 367.048C331.24 365.194 329.498 363.118 327.676 360.932C318.091 349.459 306.314 335.076 306.69 334.131C307.237 332.763 328.687 346.726 338.655 356.027C340.308 357.563 341.636 358.974 342.515 360.163L351.222 353.448L354.247 351.114L355.081 353.116L356.542 356.602L358.689 361.745Z" fill="black"/>
<path opacity="0.2" d="M356.975 357.64C356.975 357.64 340.58 363.666 337.608 365.474C334.635 367.283 333.552 367.942 333.552 367.942C331.988 366.087 330.366 364.155 328.544 361.968C331.623 359.277 335.009 357.333 338.655 356.027C340.307 357.563 341.636 358.974 342.514 360.163L351.22 353.448L355.08 353.116L356.975 357.64Z" fill="black"/>
<path d="M480.638 274.835L504.04 272.457C504.04 272.457 511.219 229.686 504.04 215.011C496.371 203.84 491.158 198.499 488.063 194.717C487.381 193.883 486.232 193.604 485.247 194.04L464.505 203.225C464.505 203.225 454.372 214.781 455.812 229.024C457.251 243.266 455.818 279.952 455.818 279.952L480.638 274.835Z" fill="#E6E6E6"/>
<path d="M456.084 276.905C456.085 276.905 456.085 276.905 456.085 276.904L456.084 276.905ZM456.18 276.862C456.212 276.85 456.254 276.836 456.305 276.821C456.569 276.743 456.993 276.66 457.568 276.573C458.712 276.4 460.394 276.222 462.457 276.037C465.287 275.78 468.816 275.511 472.627 275.221C474.37 275.088 476.172 274.95 477.993 274.808C483.789 274.353 489.77 273.846 494.623 273.264C497.05 272.973 499.2 272.663 500.906 272.329C502.341 272.05 503.501 271.746 504.246 271.409C504.248 271.42 504.25 271.432 504.252 271.443C504.294 271.668 504.324 271.99 504.336 272.408C504.361 273.239 504.317 274.402 504.197 275.803C503.958 278.603 503.419 282.328 502.542 286.221C501.664 290.115 500.451 294.165 498.868 297.621C497.287 301.07 495.358 303.88 493.068 305.377C489.928 306.576 486.064 306.428 481.994 305.494C477.915 304.559 473.671 302.843 469.819 300.965C465.968 299.089 462.519 297.055 460.032 295.491C458.79 294.708 457.787 294.044 457.097 293.575C456.751 293.341 456.484 293.155 456.303 293.028C456.257 292.996 456.215 292.967 456.18 292.942V276.862ZM504.175 271.179C504.175 271.179 504.176 271.18 504.176 271.182C504.176 271.18 504.175 271.179 504.175 271.179Z" fill="black" stroke="black" stroke-width="1.24375"/>
<path d="M488.007 377.369H456.278C455.055 377.369 454.064 376.376 454.064 375.152C454.064 373.929 455.055 372.936 456.278 372.936H489.307L488.007 377.369Z" fill="black"/>
<path fill-rule="evenodd" clip-rule="evenodd" d="M404.208 289.877C408.378 285.439 414.193 282.923 420.279 282.923H485.843C492.771 282.923 498.387 288.545 498.387 295.482C498.387 302.418 492.771 308.04 485.843 308.04H421.586L370.169 362.77C365.423 367.821 357.484 368.065 352.437 363.313C347.391 358.561 347.148 350.613 351.895 345.561L404.208 289.877Z" fill="black"/>
<path fill-rule="evenodd" clip-rule="evenodd" d="M404.208 289.877C408.378 285.439 414.193 282.923 420.279 282.923H485.843C492.771 282.923 498.387 288.545 498.387 295.482C498.387 302.418 492.771 308.04 485.843 308.04H421.586L370.169 362.77C365.423 367.821 357.484 368.065 352.437 363.313C347.391 358.561 347.148 350.613 351.895 345.561L404.208 289.877Z" fill="black"/>
<path d="M498.464 308.488H432.054C430.831 308.488 429.841 309.48 429.841 310.704C429.841 311.928 430.831 312.92 432.054 312.92H498.464V308.488Z" fill="black"/>
<path d="M488.374 377.42L523.983 206.072C524.23 204.882 523.474 203.715 522.289 203.455C521.086 203.192 519.899 203.962 519.649 205.169L484.05 376.473L488.374 377.42Z" fill="black"/>
<path d="M505.806 276.727H447.624C445.183 276.727 443.206 278.708 443.206 281.151C443.206 283.594 445.183 285.574 447.624 285.574H505.806V276.727Z" fill="black"/>
<path fill-rule="evenodd" clip-rule="evenodd" d="M488.374 377.42L489.305 372.94L489.306 372.937H489.305L523.983 206.072C524.23 204.882 523.474 203.715 522.288 203.455C521.085 203.192 519.899 203.962 519.648 205.169L504.778 276.728H447.624C445.183 276.728 443.205 278.709 443.205 281.151C443.205 283.594 445.183 285.575 447.624 285.575H502.939L498.177 308.488H432.053C430.831 308.488 429.839 309.48 429.839 310.704C429.839 311.928 430.831 312.92 432.053 312.92H497.256L484.784 372.937H456.276C455.054 372.937 454.063 373.929 454.063 375.153C454.063 376.377 455.054 377.369 456.276 377.369H488.006L488.014 377.341L488.374 377.42Z" fill="white" fill-opacity="0.21"/>
<path d="M365.092 262.864H321.436V256.796C321.436 255.884 322.253 255.192 323.151 255.342L363.863 261.415C364.572 261.533 365.092 262.148 365.092 262.868V262.864Z" fill="black"/>
<path d="M350.41 247.436C348.572 247.797 346.789 246.597 346.429 244.756L326.347 142.169C325.987 140.328 327.185 138.544 329.024 138.183C330.862 137.822 332.645 139.022 333.005 140.863L353.087 243.449C353.448 245.29 352.249 247.075 350.41 247.436Z" fill="black"/>
<path d="M398.94 260.487H367.771V262.59H398.94V260.487Z" fill="black"/>
<path d="M405.226 246.899C405.226 246.899 393.951 237.695 390.586 237.937C387.22 238.178 372.035 255.265 373.29 259.094C374.544 262.924 379.542 260.487 379.542 260.487C381.831 260.487 385.991 259.399 387.078 257.382C388.366 254.994 394.401 260.487 395.911 260.487C398.941 260.487 405.226 255.025 405.226 255.025V246.899Z" fill="#E8E8E8"/>
<path d="M464.182 217L452.512 252.049C451.291 255.716 446.314 262.889 442.491 262.352L390 249.89" stroke="#F2F2F2" stroke-width="39.8" stroke-miterlimit="10" stroke-linecap="round"/>
<path d="M396.065 377.746C396.065 378.765 395.239 379.585 394.221 379.585C361.931 379.489 338.134 379.201 333.581 378.854C331.611 378.698 330.069 378.115 328.866 377.066C326.018 374.577 325.804 370.218 326.092 368.268C326.874 362.92 333.242 360.674 339.994 358.295C343.306 357.12 346.73 355.916 349.807 354.298C364.425 346.623 375.848 327.94 373.301 315.855C371.265 306.177 360.101 300.415 349.306 294.845C338.348 289.186 321.141 283.845 322.372 274.529C322.705 272.055 323.598 269.631 325.059 267.297H341.535C339.351 269.38 337.123 271.818 336.429 274.839C335.315 279.693 340.805 286.298 350.995 291.564C362.02 297.253 374.512 303.702 376.91 315.094C378.363 321.993 376.246 330.467 370.94 338.955C365.959 346.918 358.883 353.7 351.52 357.571C348.206 359.307 344.657 360.563 341.218 361.774C335.552 363.776 330.201 365.66 329.744 368.8C329.567 369.996 329.715 372.907 331.287 374.281C331.877 374.791 332.718 375.079 333.869 375.168C338.333 375.515 362.027 375.796 394.228 375.891C395.246 375.891 396.073 376.727 396.065 377.746Z" fill="black"/>
<path opacity="0.71" d="M426.024 262.864H305.749V267.297H426.024V262.864Z" fill="black"/>
<path fill-rule="evenodd" clip-rule="evenodd" d="M515.709 172.789L510.304 194.746L501.724 192.629L511.606 152.488C512.189 150.116 514.583 148.666 516.952 149.251C519.322 149.836 520.769 152.232 520.185 154.604L516.064 171.346L523.343 172.337L514.238 213.594C514.15 213.993 513.757 214.244 513.358 214.156C512.96 214.068 512.709 213.674 512.797 213.275L521.556 173.584L515.709 172.789Z" fill="black"/>
<path fill-rule="evenodd" clip-rule="evenodd" d="M515.709 172.789L510.304 194.746L501.724 192.629L511.606 152.488C512.189 150.116 514.583 148.666 516.952 149.251C519.322 149.836 520.769 152.232 520.185 154.604L516.064 171.346L523.343 172.337L514.238 213.594C514.15 213.993 513.757 214.244 513.358 214.156C512.96 214.068 512.709 213.674 512.797 213.275L521.556 173.584L515.709 172.789Z" fill="white" fill-opacity="0.21"/>
<path d="M484.611 320.153H491.958L483.026 360.628" stroke="black" stroke-width="1.01001" stroke-miterlimit="10" stroke-linecap="round"/>
<path d="M530.73 376.883H570.775" stroke="black" stroke-width="1.01001" stroke-miterlimit="10" stroke-linecap="round"/>
<path d="M454.064 376.883H516.59" stroke="black" stroke-width="1.01001" stroke-miterlimit="10" stroke-linecap="round"/>
<path fill-rule="evenodd" clip-rule="evenodd" d="M261.577 139.695H164.677V138.956H261.577V139.695Z" fill="black"/>
<path d="M346.02 54.4146H186.464V62.9322H346.02V54.4146Z" fill="black"/>
<path d="M450.456 85.2007H530.73" stroke="black" stroke-width="1.24375" stroke-miterlimit="10"/>
<path d="M450.456 79.3752H530.73" stroke="black" stroke-width="1.24375" stroke-miterlimit="10"/>
<path d="M98.463 133.499V118.81H113.89" stroke="black" stroke-width="1.24375" stroke-miterlimit="10"/>
<path d="M230.888 273.082V317.345" stroke="black" stroke-width="1.24375" stroke-miterlimit="10"/>
<path d="M315.709 377.739C315.709 377.739 302.797 363.608 305.748 363.608C308.7 363.608 316.816 370.256 316.816 370.256C316.816 370.256 320.462 356.126 327.841 349.477C327.841 349.477 329.392 361.883 327.917 368.532C327.917 368.532 332.406 358.162 338.309 360.378C338.309 360.378 333.724 377.012 332.681 377.739" stroke="black" stroke-width="1.01001" stroke-miterlimit="10" stroke-linecap="round"/>
</g>
<defs>
<filter id="filter0_d" x="-4" y="0" width="586" height="442" filterUnits="userSpaceOnUse" color-interpolation-filters="sRGB">
<feFlood flood-opacity="0" result="BackgroundImageFix"/>
<feColorMatrix in="SourceAlpha" type="matrix" values="0 0 0 0 0 0 0 0 0 0 0 0 0 0 0 0 0 0 127 0"/>
<feOffset dy="4"/>
<feGaussianBlur stdDeviation="2"/>
<feColorMatrix type="matrix" values="0 0 0 0 0 0 0 0 0 0 0 0 0 0 0 0 0 0 0.25 0"/>
<feBlend mode="normal" in2="BackgroundImageFix" result="effect1_dropShadow"/>
<feBlend mode="normal" in="SourceGraphic" in2="effect1_dropShadow" result="shape"/>
</filter>
</defs>
</svg>
