<svg fill="none" viewBox="0 0 578 434" xmlns="http://www.w3.org/2000/svg">
<g filter="url(#a)">
<path d="m395.54 183.52v-47.955h0.738v48.694h-85.535v-0.739h84.797z" clip-rule="evenodd" fill="#000" fill-rule="evenodd"/>
<path d="m514.23 55.281h-40.16v290.73h40.16v-290.73z" fill="#000" opacity=".3"/>
<path d="m467.2 55.281h-40.161v290.73h40.161v-290.73z" fill="#000" opacity=".3"/>
<path d="m230.89 101.78h56.782v74.353h23.075v0.738h-23.813v-74.352h-56.044v-0.739z" clip-rule="evenodd" fill="#000" fill-rule="evenodd"/>
<path d="m395.54 128.18v-36.415h0.738v36.415h-0.738z" clip-rule="evenodd" fill="#000" fill-rule="evenodd"/>
<path d="m208.12 164.4h-148.6v19.796h148.6v-19.796z" fill="#2EC4B6"/>
<path d="m89.83 377.37h209.97" stroke="#000" stroke-linecap="round" stroke-miterlimit="10" stroke-width="1.01"/>
<path d="m37.943 377.37h39.484" stroke="#000" stroke-linecap="round" stroke-miterlimit="10" stroke-width="1.01"/>
<path d="m38.242 213.3h144.71" stroke="#000" stroke-miterlimit="10" stroke-width="1.2438"/>
<path d="m541.04 372.94c3.469-4.096 1.959-13.32 0.163-13.32-2.952 0-5.48 10.64-5.48 10.64s-3.645-14.13-11.024-20.779c0 0-1.552 12.406-0.076 19.055 0 0-4.49-10.37-10.393-8.154 0 0 4.585 16.634 5.628 17.361" stroke="#000" stroke-linecap="round" stroke-miterlimit="10" stroke-width="1.01"/>
<path d="m70.521 377.45s-4.6067-14.203-2.9121-25.022c6.063 3.566 8.6618 7.612 8.6618 7.612s0.6257-3.915 8.0046-10.564c0 0 1.5519 12.406 0.0758 19.055 2.726-3.759 5.9079-6.876 10.393-8.154 0 0-2.8597 16.746-9.9835 16.991" stroke="#000" stroke-linecap="round" stroke-miterlimit="10" stroke-width="1.01"/>
<path d="m395.91 65.888c-10.653 0-19.29 8.6468-19.29 19.312 0 10.666 8.637 19.312 19.29 19.312 10.654 0 19.29-8.6469 19.29-19.312 0-10.666-8.636-19.312-19.29-19.312zm-20.028 19.312c0-11.074 8.967-20.051 20.028-20.051s20.028 8.9768 20.028 20.051c0 11.074-8.967 20.05-20.028 20.05s-20.028-8.977-20.028-20.05z" clip-rule="evenodd" fill="#000" fill-rule="evenodd"/>
<path d="m395.91 91.027c3.214 0 5.819-2.6084 5.819-5.8258 0-3.2173-2.605-5.8257-5.819-5.8257s-5.819 2.6084-5.819 5.8257c0 3.2174 2.605 5.8258 5.819 5.8258z" fill="#000"/>
<path d="m261.58 133.87c-3.01 0-5.45 2.443-5.45 5.457 0 3.013 2.44 5.456 5.45 5.456s5.45-2.443 5.45-5.456c0-3.014-2.44-5.457-5.45-5.457zm-6.188 5.457c0-3.422 2.77-6.196 6.188-6.196s6.188 2.774 6.188 6.196c0 3.421-2.77 6.194-6.188 6.194s-6.188-2.773-6.188-6.194z" clip-rule="evenodd" fill="#000" fill-rule="evenodd"/>
<path d="m301.31 87.363h-32.025v-0.7385h32.763v52.699h-0.738v-51.961z" clip-rule="evenodd" fill="#000" fill-rule="evenodd"/>
<path d="m355.65 243.58-3.625 3.047-23-108.44 5.325-0.408c1.828-0.14 3.471 1.111 3.823 2.912l19.19 98.034c0.355 1.812-0.302 3.672-1.713 4.858z" fill="#000"/>
<path d="m395.91 249.39s-11.275-9.204-14.641-8.963c-3.365 0.242-15.179 12.401-13.924 16.231 1.255 3.828 5.839 3.828 5.839 3.828 2.289 0 4.414-1.237 5.5-3.253 1.288-2.389 3.097-5.085 4.367-4.276 2.178 1.387 0.345 7.529 1.856 7.529 1.51 0 11.003-2.971 11.003-2.971v-8.125z" fill="#B08566"/>
<path d="m474.07 213.44-12.719 31.558c-1.221 3.666-6.199 10.84-10.022 10.302l-46.101-4.202" stroke="#111010" stroke-linecap="round" stroke-miterlimit="10" stroke-width="39.8"/>
<path d="m467.24 196.41c0.399-3.377 0.605-6.369 0.31-7.55-0.62-2.497-6.405-2.076-9.364-1.692-1.04 0.133-1.734 0.266-1.734 0.266l1.232-2.135v-8e-3l8e-3 -7e-3 10.53-18.217 18.262-2.527-5.586 11.495c-1.601 8.127 7.202 20.736 7.202 20.736l-22.955 13.386s1.365-7.535 2.095-13.747z" fill="#C79775"/>
<path d="m476.09 181.37s-2.074 13.963-8.848 15.041c0.399-3.376 0.606-6.368 0.31-7.55-0.62-2.497-6.405-2.075-9.364-1.691l-0.502-1.869v-8e-3l8e-3 -7e-3 10.102-5.519 8.294 1.603z" fill="#7D4921"/>
<path d="m447.12 165.07c-0.402 0-0.79-0.221-0.986-0.604-0.279-0.544-0.064-1.212 0.481-1.491l3.334-1.709c0.543-0.279 1.211-0.064 1.49 0.481 0.278 0.545 0.062 1.213-0.482 1.491l-3.333 1.71c-0.162 0.083-0.334 0.122-0.504 0.122z" fill="#000"/>
<path d="m449.73 173.1c-2.148 0-3.938-3.008-4.192-7.101-0.115-1.87 0.127-3.662 0.683-5.046 0.628-1.562 1.601-2.462 2.741-2.532 2.205-0.14 4.072 2.913 4.333 7.096 0.26 4.183-1.211 7.442-3.422 7.579-0.048 3e-3 -0.096 4e-3 -0.143 4e-3zm-0.629-13.206c-0.017 0-0.032 0-0.048 1e-3 -0.524 0.033-1.071 0.634-1.463 1.61-0.476 1.184-0.682 2.748-0.578 4.403 0.208 3.356 1.613 5.796 2.77 5.713 1.135-0.07 2.249-2.657 2.04-6.012-0.206-3.308-1.594-5.715-2.721-5.715z" fill="#91826C"/>
<path d="m454.55 145.6s-2.032 10.087 1.962 11.524 23.928-7.052 23.928-7.052l-20.259-6.202-5.631 1.73z" fill="#91826C"/>
<path d="m456.28 153.26s-8.546 16.271-1.777 33.589c0.402 1.031 1.411 1.696 2.516 1.667 3.791-0.101 14.587-2.411 20.274-6.654l1.408-5.57 8.3-12.871s2.775-11.404-6.553-13.351c-9.328-1.946-21.835-4.08-24.168 3.19z" fill="#C79775"/>
<path d="m453.47 180.21c3.012 0.631 4.224-2.231 4.224-2.231" stroke="#000" stroke-miterlimit="10" stroke-width="1.2438"/>
<path d="m490.93 165.99c2.095 6.398-10.463 14.428-13.009 8.348-0.133-0.317 0.243-1.499 0.73-3.028 1.203-8.452-6.161-7.55-6.449-4.839-0.073 0.687-1.955 5.947-4.051 4.698-1.335-0.79-0.604-2.829-0.907-8.067-2.192-1.706-3.387-4.927-4.037-7.816-4.626-0.562-9.068-1.507-10.404-2.43-1.918-1.323-6.412-7.594-1.652-16.172 4.065-7.32 36.023 3.495 36.525 11.599 7.268-0.451 2.457 14.553 3.032 16.998 0.074 0.237 0.148 0.473 0.222 0.709z" fill="#000"/>
<path d="m453.19 164.54s-6.018 8.968-5.733 10.198c0.284 1.23 6.013 0.386 6.013 0.386" fill="#C79775"/>
<path d="m472.6 168.92s3.007-5.129 4.611-1.229c1.279 3.108-1.449 8.72-3.314 7.942-1.823-0.761 0.841-4.474 0.841-4.474" stroke="#000" stroke-miterlimit="10" stroke-width="1.2438"/>
<path d="m462.43 166.09c-0.17 0-0.341-0.039-0.503-0.122l-4.127-2.115c-0.544-0.28-0.76-0.947-0.481-1.492s0.947-0.76 1.49-0.481l4.126 2.115c0.544 0.279 0.76 0.947 0.482 1.492-0.197 0.382-0.584 0.603-0.987 0.603z" fill="#000"/>
<path d="m458.57 175.96c-2.682 0-4.947-3.145-5.206-7.294-0.122-1.978 0.246-3.875 1.035-5.344 0.841-1.564 2.062-2.474 3.441-2.56 2.771-0.166 5.153 3.03 5.418 7.288 0.264 4.259-1.702 7.73-4.474 7.904-0.072 4e-3 -0.144 6e-3 -0.214 6e-3zm-0.524-13.961c-0.044 0-0.086 2e-3 -0.13 4e-3 -0.933 0.058-1.794 0.736-2.424 1.908-0.682 1.267-0.997 2.929-0.888 4.678 0.214 3.444 2.094 6.258 4.103 6.123 2.009-0.125 3.526-3.14 3.312-6.585-0.209-3.37-2.013-6.128-3.973-6.128z" fill="#91826C"/>
<path d="m458 169.31c0.618 0 1.121-0.502 1.121-1.121 0-0.62-0.503-1.122-1.121-1.122-0.619 0-1.121 0.502-1.121 1.122 0 0.619 0.502 1.121 1.121 1.121z" fill="#000"/>
<path d="m449.42 167.86c0.528 0 0.956-0.429 0.956-0.958s-0.428-0.957-0.956-0.957-0.957 0.428-0.957 0.957 0.429 0.958 0.957 0.958z" fill="#000"/>
<path d="m474.07 169.17s0.554-0.732 1.303-0.408" stroke="#000" stroke-miterlimit="10" stroke-width="1.2438"/>
<path d="m339.33 259.72h-3.689l-7.249-48.567 12.676-9.014v2.193l-8.986 8.35 7.248 47.038z" fill="#000"/>
<path d="m434.83 349.48 8.842 27.077s-42.031 1.026-42.703-0.545c-0.673-1.572 19.376-9.845 31.489-8.969l-5.19-11.576 7.562-5.987z" fill="#000"/>
<path d="m387.63 285.2c-5.157-11.807 5.678-24.322 18.085-20.887l73.992 20.487c5.892 1.631 9.347 7.735 7.718 13.634-1.63 5.898-7.726 9.358-13.618 7.726l-59.677-16.523 25.734 55.148c2.588 5.544 0.195 12.14-5.343 14.73s-12.125 0.195-14.713-5.35l-32.123-68.839-0.055-0.126z" clip-rule="evenodd" fill="#000" fill-rule="evenodd"/>
<path d="m387.63 285.2c-5.157-11.807 5.678-24.322 18.085-20.887l73.992 20.487c5.892 1.631 9.347 7.735 7.718 13.634-1.63 5.898-7.726 9.358-13.618 7.726l-59.677-16.523 25.734 55.148c2.588 5.544 0.195 12.14-5.343 14.73s-12.125 0.195-14.713-5.35l-32.123-68.839-0.055-0.126z" clip-rule="evenodd" fill="#000" fill-opacity=".15" fill-rule="evenodd"/>
<path d="m358.69 361.74-19.03 13.407s-2.841-3.331-6.855-8.104c-1.564-1.854-3.306-3.93-5.128-6.116-9.585-11.473-21.362-25.856-20.986-26.801 0.547-1.368 21.997 12.595 31.965 21.896 1.653 1.536 2.981 2.947 3.86 4.136l8.707-6.715 3.025-2.334 0.834 2.002 1.461 3.486 2.147 5.143z" fill="#000"/>
<path d="m356.98 357.64s-16.395 6.026-19.367 7.834c-2.973 1.809-4.056 2.468-4.056 2.468-1.564-1.855-3.186-3.787-5.008-5.974 3.079-2.691 6.465-4.635 10.111-5.941 1.652 1.536 2.981 2.947 3.859 4.136l8.706-6.715 3.86-0.332 1.895 4.524z" fill="#000" opacity=".2"/>
<path d="m480.64 274.84 23.402-2.378s7.179-42.771 0-57.446c-7.669-11.171-12.882-16.512-15.977-20.294-0.682-0.834-1.831-1.113-2.816-0.677l-20.742 9.185s-10.133 11.556-8.693 25.799c1.439 14.242 6e-3 50.928 6e-3 50.928l24.82-5.117z" fill="#E6E6E6"/>
<path d="m456.08 276.9c1e-3 0 1e-3 0 1e-3 -1e-3l-1e-3 1e-3zm0.096-0.043c0.032-0.012 0.074-0.026 0.125-0.041 0.264-0.078 0.688-0.161 1.263-0.248 1.144-0.173 2.826-0.351 4.889-0.536 2.83-0.257 6.359-0.526 10.17-0.816 1.743-0.133 3.545-0.271 5.366-0.413 5.796-0.455 11.777-0.962 16.63-1.544 2.427-0.291 4.577-0.601 6.283-0.935 1.435-0.279 2.595-0.583 3.34-0.92 2e-3 0.011 4e-3 0.023 6e-3 0.034 0.042 0.225 0.072 0.547 0.084 0.965 0.025 0.831-0.019 1.994-0.139 3.395-0.239 2.8-0.778 6.525-1.655 10.418-0.878 3.894-2.091 7.944-3.674 11.4-1.581 3.449-3.51 6.259-5.8 7.756-3.14 1.199-7.004 1.051-11.074 0.117-4.079-0.935-8.323-2.651-12.175-4.529-3.851-1.876-7.3-3.91-9.787-5.474-1.242-0.783-2.245-1.447-2.935-1.916-0.346-0.234-0.613-0.42-0.794-0.547-0.046-0.032-0.088-0.061-0.123-0.086v-16.08zm47.995-5.683s1e-3 1e-3 1e-3 3e-3c0-2e-3 -1e-3 -3e-3 -1e-3 -3e-3z" fill="#000" stroke="#000" stroke-width="1.2438"/>
<path d="m488.01 377.37h-31.729c-1.223 0-2.214-0.993-2.214-2.217 0-1.223 0.991-2.216 2.214-2.216h33.029l-1.3 4.433z" fill="#000"/>
<path d="m404.21 289.88c4.17-4.438 9.985-6.954 16.071-6.954h65.564c6.928 0 12.544 5.622 12.544 12.559 0 6.936-5.616 12.558-12.544 12.558h-64.257l-51.417 54.73c-4.746 5.051-12.685 5.295-17.732 0.543-5.046-4.752-5.289-12.7-0.542-17.752l52.313-55.684z" clip-rule="evenodd" fill="#000" fill-rule="evenodd"/>
<path d="m404.21 289.88c4.17-4.438 9.985-6.954 16.071-6.954h65.564c6.928 0 12.544 5.622 12.544 12.559 0 6.936-5.616 12.558-12.544 12.558h-64.257l-51.417 54.73c-4.746 5.051-12.685 5.295-17.732 0.543-5.046-4.752-5.289-12.7-0.542-17.752l52.313-55.684z" clip-rule="evenodd" fill="#000" fill-rule="evenodd"/>
<path d="m498.46 308.49h-66.41c-1.223 0-2.213 0.992-2.213 2.216s0.99 2.216 2.213 2.216h66.41v-4.432z" fill="#000"/>
<path d="m488.37 377.42 35.609-171.35c0.247-1.19-0.509-2.357-1.694-2.617-1.203-0.263-2.39 0.507-2.64 1.714l-35.599 171.3 4.324 0.947z" fill="#000"/>
<path d="m505.81 276.73h-58.182c-2.441 0-4.418 1.981-4.418 4.424s1.977 4.423 4.418 4.423h58.182v-8.847z" fill="#000"/>
<path d="m488.37 377.42 0.931-4.48 1e-3 -3e-3h-1e-3l34.678-166.86c0.247-1.19-0.509-2.357-1.695-2.617-1.203-0.263-2.389 0.507-2.64 1.714l-14.87 71.559h-57.154c-2.441 0-4.419 1.981-4.419 4.423 0 2.443 1.978 4.424 4.419 4.424h55.315l-4.762 22.913h-66.124c-1.222 0-2.214 0.992-2.214 2.216s0.992 2.216 2.214 2.216h65.203l-12.472 60.017h-28.508c-1.222 0-2.213 0.992-2.213 2.216s0.991 2.216 2.213 2.216h31.73l8e-3 -0.028 0.36 0.079z" clip-rule="evenodd" fill="#fff" fill-opacity=".21" fill-rule="evenodd"/>
<path d="m365.09 262.86h-43.656v-6.068c0-0.912 0.817-1.604 1.715-1.454l40.712 6.073c0.709 0.118 1.229 0.733 1.229 1.453v-4e-3z" fill="#000"/>
<path d="m350.41 247.44c-1.838 0.361-3.621-0.839-3.981-2.68l-20.082-102.59c-0.36-1.841 0.838-3.625 2.677-3.986 1.838-0.361 3.621 0.839 3.981 2.68l20.082 102.59c0.361 1.841-0.838 3.626-2.677 3.987z" fill="#000"/>
<path d="m398.94 260.49h-31.169v2.103h31.169v-2.103z" fill="#000"/>
<path d="m405.23 246.9s-11.275-9.204-14.64-8.962c-3.366 0.241-18.551 17.328-17.296 21.157 1.254 3.83 6.252 1.393 6.252 1.393 2.289 0 6.449-1.088 7.536-3.105 1.288-2.388 7.323 3.105 8.833 3.105 3.03 0 9.315-5.462 9.315-5.462v-8.126z" fill="#C79775"/>
<path d="m464.18 217-11.67 35.049c-1.221 3.667-6.198 10.84-10.021 10.303l-52.491-12.462" stroke="#F2F2F2" stroke-linecap="round" stroke-miterlimit="10" stroke-width="39.8"/>
<path d="m396.06 377.75c0 1.019-0.826 1.839-1.844 1.839-32.29-0.096-56.087-0.384-60.64-0.731-1.97-0.156-3.512-0.739-4.715-1.788-2.848-2.489-3.062-6.848-2.774-8.798 0.782-5.348 7.15-7.594 13.902-9.973 3.312-1.175 6.736-2.379 9.813-3.997 14.618-7.675 26.041-26.358 23.494-38.443-2.036-9.678-13.2-15.44-23.995-21.01-10.958-5.659-28.165-11-26.934-20.316 0.333-2.474 1.226-4.898 2.687-7.232h16.476c-2.184 2.083-4.412 4.521-5.106 7.542-1.114 4.854 4.376 11.459 14.566 16.725 11.025 5.689 23.517 12.138 25.915 23.53 1.453 6.899-0.664 15.373-5.97 23.861-4.981 7.963-12.057 14.745-19.42 18.616-3.314 1.736-6.863 2.992-10.302 4.203-5.666 2.002-11.017 3.886-11.474 7.026-0.177 1.196-0.029 4.107 1.543 5.481 0.59 0.51 1.431 0.798 2.582 0.887 4.464 0.347 28.158 0.628 60.359 0.723 1.018 0 1.845 0.836 1.837 1.855z" fill="#2EC4B6"/>
<path d="m426.02 262.86h-120.28v4.433h120.28v-4.433z" fill="#000" opacity=".71"/>
<path d="m515.71 172.79-5.405 21.957-8.58-2.117 9.882-40.141c0.583-2.372 2.977-3.822 5.346-3.237 2.37 0.585 3.817 2.981 3.233 5.353l-4.121 16.742 7.279 0.991-9.105 41.257c-0.088 0.399-0.481 0.65-0.88 0.562-0.398-0.088-0.649-0.482-0.561-0.881l8.759-39.691-5.847-0.795z" clip-rule="evenodd" fill="#000" fill-rule="evenodd"/>
<path d="m515.71 172.79-5.405 21.957-8.58-2.117 9.882-40.141c0.583-2.372 2.977-3.822 5.346-3.237 2.37 0.585 3.817 2.981 3.233 5.353l-4.121 16.742 7.279 0.991-9.105 41.257c-0.088 0.399-0.481 0.65-0.88 0.562-0.398-0.088-0.649-0.482-0.561-0.881l8.759-39.691-5.847-0.795z" clip-rule="evenodd" fill="#fff" fill-opacity=".21" fill-rule="evenodd"/>
<path d="m484.61 320.15h7.347l-8.932 40.475" stroke="#000" stroke-linecap="round" stroke-miterlimit="10" stroke-width="1.01"/>
<path d="m530.73 376.88h40.045" stroke="#000" stroke-linecap="round" stroke-miterlimit="10" stroke-width="1.01"/>
<path d="m454.06 376.88h62.526" stroke="#000" stroke-linecap="round" stroke-miterlimit="10" stroke-width="1.01"/>
<path d="m261.58 139.7h-96.9v-0.739h96.9v0.739z" clip-rule="evenodd" fill="#000" fill-rule="evenodd"/>
<path d="m346.02 54.415h-159.56v8.5176h159.56v-8.5176z" fill="#2EC4B6"/>
<path d="m450.46 85.201h80.274" stroke="#78D2EE" stroke-miterlimit="10" stroke-width="1.2438"/>
<path d="m450.46 79.375h80.274" stroke="#78D2EE" stroke-miterlimit="10" stroke-width="1.2438"/>
<path d="m98.463 133.5v-14.689h15.427" stroke="#000" stroke-miterlimit="10" stroke-width="1.2438"/>
<path d="m230.89 273.08v44.263" stroke="#000" stroke-miterlimit="10" stroke-width="1.2438"/>
<path d="m315.71 377.74s-12.912-14.131-9.961-14.131c2.952 0 11.068 6.648 11.068 6.648s3.646-14.13 11.025-20.779c0 0 1.551 12.406 0.076 19.055 0 0 4.489-10.37 10.392-8.154 0 0-4.585 16.634-5.628 17.361" stroke="#000" stroke-linecap="round" stroke-miterlimit="10" stroke-width="1.01"/>
</g>
<defs>
<filter id="a" x="-4" y="0" width="586" height="442" color-interpolation-filters="sRGB" filterUnits="userSpaceOnUse">
<feFlood flood-opacity="0" result="BackgroundImageFix"/>
<feColorMatrix in="SourceAlpha" values="0 0 0 0 0 0 0 0 0 0 0 0 0 0 0 0 0 0 127 0"/>
<feOffset dy="4"/>
<feGaussianBlur stdDeviation="2"/>
<feColorMatrix values="0 0 0 0 0 0 0 0 0 0 0 0 0 0 0 0 0 0 0.25 0"/>
<feBlend in2="BackgroundImageFix" result="effect1_dropShadow"/>
<feBlend in="SourceGraphic" in2="effect1_dropShadow" result="shape"/>
</filter>
</defs>
</svg>
