<svg width="334" height="236" viewBox="0 0 334 236" fill="none" xmlns="http://www.w3.org/2000/svg">
<g clip-path="url(#clip0)">
<path d="M170.581 235.5C180.626 235.5 188.77 227.335 188.77 217.263C188.77 207.19 180.626 199.025 170.581 199.025C160.535 199.025 152.391 207.19 152.391 217.263C152.391 227.335 160.535 235.5 170.581 235.5Z" fill="#FF9F1C"/>
<path d="M279.244 234.475C289.42 231.411 300.238 228.216 308.309 220.932C315.52 214.422 320.389 204.483 317.401 194.721C314.42 184.979 305.489 178.483 296.269 175.252C291.04 173.42 285.569 172.403 280.1 171.605C274.155 170.737 268.184 170.025 262.215 169.341C238.048 166.569 213.79 164.876 189.441 164.262C177.426 163.958 165.414 163.966 153.398 164.141C142.666 164.297 131.364 164.293 121.409 159.72C113.667 156.164 106.641 149.694 104.483 141.192C101.993 131.377 106.586 121.383 113.175 114.275C116.648 110.528 120.706 107.375 124.893 104.475C129.436 101.33 134.136 98.4068 138.939 95.6784C148.398 90.3074 158.287 85.7364 168.503 82.0129C173.543 80.1755 178.658 78.5903 183.817 77.1279C188.173 75.893 192.543 74.6564 196.753 72.9739C204.892 69.7215 212.634 64.2121 214.703 55.18C216.664 46.6198 213.357 37.327 207.56 30.9677C200.852 23.6106 190.739 20.3854 181.043 19.8636C170.158 19.2777 159.523 22.0092 149.292 25.4759C138.38 29.1733 127.703 33.4247 116.56 36.4195C105.511 39.3865 94.2471 41.4857 82.8722 42.6982C77.3039 43.2927 71.5672 43.964 65.9656 43.5089C61.2711 43.1274 56.6005 41.7431 53.1406 38.4025C50.174 35.5382 48.4067 31.6016 49.0143 27.4473C49.1247 26.6927 50.2679 27.0135 50.1582 27.7635C49.4186 32.8204 52.847 37.4803 57.0718 39.8672C61.9544 42.626 67.896 42.6297 73.3321 42.3142C85.119 41.6004 96.8263 39.9036 108.332 37.2412C119.638 34.6521 130.541 30.9508 141.43 26.9969C151.773 23.2418 162.347 19.5768 173.396 18.7635C182.983 18.0577 193.069 19.4581 201.421 24.4817C208.761 28.8967 214.159 36.2596 215.879 44.7086C217.56 52.9648 215.232 61.2749 208.999 67.0363C202.545 73.0017 193.696 75.552 185.449 77.9009C174.99 80.8801 164.754 84.3625 154.847 88.8842C144.805 93.4545 135.174 98.8834 126.06 105.111C117.264 111.138 108.583 118.722 105.8 129.474C104.505 134.483 104.744 139.795 106.912 144.526C108.84 148.732 112.016 152.27 115.715 155C124.541 161.511 135.665 162.848 146.326 162.981C158.3 163.131 170.274 162.725 182.252 162.923C206.662 163.324 231.022 164.814 255.332 167.392C261.424 168.038 267.508 168.753 273.584 169.536C279.049 170.24 284.533 170.939 289.906 172.19C299.46 174.413 308.757 178.688 314.696 186.811C317.331 190.331 318.964 194.503 319.42 198.881C319.835 203.45 318.72 208.027 316.66 212.092C312.099 221.088 303.558 226.81 294.487 230.569C289.629 232.582 284.589 234.108 279.559 235.622C278.827 235.843 278.514 234.695 279.244 234.475L279.244 234.475Z" fill="#FF9F1C"/>
<path d="M49.7803 37.0694C55.0215 37.0694 59.2704 32.8093 59.2704 27.5542C59.2704 22.2991 55.0215 18.0391 49.7803 18.0391C44.5391 18.0391 40.2903 22.2991 40.2903 27.5542C40.2903 32.8093 44.5391 37.0694 49.7803 37.0694Z" fill="#FF9F1C"/>
<path d="M115.617 55.1085C120.859 55.1085 125.108 50.8485 125.108 45.5934C125.108 40.3383 120.859 36.0782 115.617 36.0782C110.376 36.0782 106.127 40.3383 106.127 45.5934C106.127 50.8485 110.376 55.1085 115.617 55.1085Z" fill="#FF9F1C"/>
<path d="M171.371 19.0303C176.613 19.0303 180.861 14.7702 180.861 9.51515C180.861 4.26008 176.613 0 171.371 0C166.13 0 161.881 4.26008 161.881 9.51515C161.881 14.7702 166.13 19.0303 171.371 19.0303Z" fill="#FF9F1C"/>
<path d="M206.168 59.4696C211.409 59.4696 215.658 55.2095 215.658 49.9545C215.658 44.6994 211.409 40.4393 206.168 40.4393C200.927 40.4393 196.678 44.6994 196.678 49.9545C196.678 55.2095 200.927 59.4696 206.168 59.4696Z" fill="#FF9F1C"/>
<path d="M159.113 106.252C164.355 106.252 168.603 101.992 168.603 96.7373C168.603 91.4822 164.355 87.2222 159.113 87.2222C153.872 87.2222 149.623 91.4822 149.623 96.7373C149.623 101.992 153.872 106.252 159.113 106.252Z" fill="#FF9F1C"/>
<path d="M99.4053 128.851C104.647 128.851 108.895 124.591 108.895 119.336C108.895 114.081 104.647 109.821 99.4053 109.821C94.1641 109.821 89.9153 114.081 89.9153 119.336C89.9153 124.591 94.1641 128.851 99.4053 128.851Z" fill="#FF9F1C"/>
<path d="M162.672 164.136C167.913 164.136 172.162 159.876 172.162 154.621C172.162 149.366 167.913 145.106 162.672 145.106C157.431 145.106 153.182 149.366 153.182 154.621C153.182 159.876 157.431 164.136 162.672 164.136Z" fill="#FF9F1C"/>
<path d="M230.684 183.959C235.925 183.959 240.174 179.699 240.174 174.444C240.174 169.189 235.925 164.929 230.684 164.929C225.443 164.929 221.194 169.189 221.194 174.444C221.194 179.699 225.443 183.959 230.684 183.959Z" fill="#FF9F1C"/>
<path d="M310.163 179.598C315.404 179.598 319.653 175.338 319.653 170.083C319.653 164.828 315.404 160.568 310.163 160.568C304.922 160.568 300.673 164.828 300.673 170.083C300.673 175.338 304.922 179.598 310.163 179.598Z" fill="#FF9F1C"/>
<path d="M168.632 26.9608C140.205 27.1622 116.929 50.3244 116.525 78.8249C116.521 79.088 116.52 80.9382 116.52 83.3581C116.52 86.9063 117.926 90.3091 120.428 92.8181C122.93 95.3271 126.324 96.7368 129.863 96.7372H129.863C131.617 96.7368 133.354 96.3899 134.974 95.7162C136.595 95.0425 138.067 94.0552 139.307 92.8108C140.546 91.5664 141.529 90.0893 142.2 88.4639C142.87 86.8384 143.214 85.0965 143.212 83.3376C143.211 81.6915 143.21 80.5521 143.21 80.4822C143.209 76.0775 144.352 71.7484 146.526 67.9208C148.7 64.0932 151.83 60.8989 155.609 58.6521C159.387 56.4054 163.684 55.1836 168.077 55.1069C172.469 55.0302 176.806 56.1012 180.66 58.2147C184.514 60.3282 187.754 63.4112 190.059 67.1606C192.365 70.91 193.657 75.1966 193.809 79.5986C193.961 84.0007 192.968 88.3666 190.926 92.267C188.885 96.1673 185.866 99.4677 182.167 101.843L182.172 101.849C182.172 101.849 163.18 114.108 157.39 130.924L157.395 130.925C156.377 134.37 155.861 137.945 155.864 141.538C155.864 143.015 155.95 155.938 156.118 166.427C156.176 170.046 157.652 173.497 160.225 176.035C162.799 178.573 166.264 179.996 169.874 179.995H169.874C171.688 179.995 173.484 179.635 175.159 178.936C176.834 178.238 178.354 177.214 179.633 175.924C180.912 174.634 181.923 173.103 182.61 171.419C183.296 169.736 183.644 167.933 183.633 166.114C183.574 156.508 183.543 145.323 183.543 144.511C183.543 134.185 193.478 123.897 201.639 117.188C211.036 109.462 217.799 98.9335 220.515 87.0569C221.116 84.6118 221.447 82.1078 221.503 79.5901C221.503 72.6466 220.133 65.7717 217.471 59.3615C214.809 52.9513 210.909 47.1325 205.994 42.2405C201.08 37.3484 195.248 33.4797 188.836 30.8573C182.424 28.2349 175.557 26.9107 168.632 26.9608Z" fill="#FF9F1C"/>
<path d="M333.529 236H0.470799C0.346167 236 0.226765 235.95 0.138764 235.861C0.0507631 235.773 0.00134277 235.653 0.00134277 235.528C0.00134277 235.403 0.0507631 235.283 0.138764 235.195C0.226765 235.106 0.346167 235.056 0.470799 235.056H333.529C333.654 235.056 333.774 235.106 333.862 235.194C333.95 235.283 334 235.403 334 235.528C334 235.653 333.95 235.773 333.862 235.862C333.774 235.95 333.654 236 333.529 236Z" fill="#3F3D56"/>
<path d="M248.5 108.233C255.052 108.233 260.363 102.908 260.363 96.3392C260.363 89.7704 255.052 84.4453 248.5 84.4453C241.949 84.4453 236.638 89.7704 236.638 96.3392C236.638 102.908 241.949 108.233 248.5 108.233Z" fill="#2F2E41"/>
<path d="M226.579 230.793H221.732L219.425 212.045H226.581L226.579 230.793Z" fill="#A0616A"/>
<path d="M218.269 229.405H227.618V235.307H212.383C212.383 234.532 212.535 233.764 212.831 233.048C213.126 232.332 213.56 231.681 214.107 231.133C214.653 230.585 215.302 230.15 216.016 229.854C216.731 229.557 217.496 229.405 218.269 229.405Z" fill="#2F2E41"/>
<path d="M264.144 230.793H259.297L256.99 212.045H264.145L264.144 230.793Z" fill="#A0616A"/>
<path d="M255.834 229.405H265.183V235.307H249.947C249.947 234.532 250.1 233.764 250.395 233.048C250.691 232.332 251.125 231.681 251.671 231.133C252.218 230.585 252.867 230.15 253.581 229.854C254.295 229.557 255.061 229.405 255.834 229.405Z" fill="#2F2E41"/>
<path d="M246.697 108.303C252.061 108.303 256.409 103.943 256.409 98.565C256.409 93.1871 252.061 88.8274 246.697 88.8274C241.334 88.8274 236.985 93.1871 236.985 98.565C236.985 103.943 241.334 108.303 246.697 108.303Z" fill="#A0616A"/>
<path d="M252.486 139.716L256.831 129.706C257.887 127.357 258.189 124.738 257.697 122.21C257.205 119.682 255.942 117.37 254.083 115.592C253.702 115.213 253.296 114.86 252.869 114.533C250.725 112.851 248.083 111.935 245.361 111.928C243.53 111.935 241.723 112.338 240.062 113.11C239.919 113.173 239.781 113.241 239.639 113.308C239.366 113.439 239.097 113.581 238.836 113.728C237.134 114.708 235.685 116.076 234.607 117.72C233.528 119.365 232.851 121.24 232.628 123.196L230.71 139.308C230.228 140.573 213.019 186.245 219.038 221.115C219.102 221.487 219.283 221.829 219.554 222.091C219.826 222.353 220.174 222.52 220.548 222.57L226.649 223.402C227.095 223.463 227.547 223.353 227.914 223.093C228.282 222.833 228.538 222.444 228.63 222.003L238.868 173.075C238.932 172.771 239.095 172.497 239.332 172.297C239.57 172.098 239.867 171.983 240.177 171.973C240.486 171.962 240.79 172.056 241.041 172.239C241.291 172.423 241.472 172.685 241.557 172.984L256.021 224.437C256.124 224.811 256.347 225.14 256.654 225.375C256.962 225.61 257.338 225.737 257.725 225.737C257.841 225.737 257.956 225.726 258.069 225.706L265.523 224.266C265.956 224.185 266.344 223.945 266.609 223.592C266.875 223.239 266.999 222.799 266.958 222.359C265.863 210.113 260.042 148.768 252.486 139.716Z" fill="#2F2E41"/>
<path d="M208.955 106.669C208.887 107.248 208.947 107.834 209.13 108.387C209.314 108.941 209.615 109.447 210.015 109.87C210.414 110.294 210.901 110.624 211.442 110.838C211.983 111.053 212.563 111.146 213.144 111.11L218.572 124.191L222.679 118.087L216.894 106.602C216.771 105.628 216.295 104.734 215.558 104.089C214.821 103.443 213.873 103.091 212.895 103.099C211.916 103.108 210.974 103.476 210.248 104.133C209.522 104.791 209.062 105.693 208.955 106.669L208.955 106.669Z" fill="#A0616A"/>
<path d="M246.159 152.887C246.736 152.818 247.291 152.623 247.785 152.315C248.279 152.008 248.699 151.595 249.017 151.107C249.335 150.619 249.542 150.067 249.624 149.49C249.705 148.913 249.66 148.325 249.491 147.767L260.913 139.426L254.036 136.845L244.244 145.161C243.329 145.508 242.572 146.18 242.118 147.049C241.664 147.918 241.543 148.925 241.779 149.877C242.015 150.829 242.591 151.662 243.398 152.216C244.206 152.771 245.188 153.01 246.159 152.887Z" fill="#A0616A"/>
<path d="M227.539 132.911C227.101 132.911 226.665 132.868 226.235 132.782C225.196 132.584 224.222 132.133 223.398 131.468C222.574 130.803 221.926 129.945 221.511 128.97L213.905 119.671C213.744 119.475 213.627 119.246 213.562 119C213.496 118.755 213.484 118.498 213.526 118.247C213.567 117.996 213.662 117.757 213.803 117.546C213.944 117.335 214.129 117.157 214.345 117.023L219.756 113.664C219.955 113.54 220.178 113.457 220.41 113.42C220.642 113.382 220.879 113.391 221.107 113.446C221.336 113.501 221.551 113.601 221.741 113.74C221.931 113.879 222.091 114.054 222.213 114.255L227.574 123.11L237.839 115.503C238.657 115.073 239.601 114.953 240.5 115.164C241.398 115.374 242.191 115.902 242.734 116.651C243.276 117.399 243.532 118.318 243.455 119.241C243.377 120.163 242.971 121.026 242.311 121.673L232.065 131.044C230.861 132.24 229.235 132.912 227.539 132.911Z" fill="#2F2E41"/>
<path d="M255.278 146.895C255.264 146.895 255.25 146.895 255.236 146.895C254.987 146.889 254.741 146.83 254.516 146.723C254.29 146.616 254.09 146.462 253.927 146.272L249.116 140.645C248.952 140.454 248.831 140.229 248.76 139.987C248.689 139.745 248.67 139.49 248.704 139.24C248.739 138.99 248.826 138.75 248.959 138.537C249.093 138.323 249.271 138.14 249.48 138L258.488 131.978L250.328 122.141C249.853 121.348 249.679 120.409 249.837 119.498C249.995 118.586 250.475 117.762 251.19 117.176C251.904 116.59 252.804 116.281 253.727 116.306C254.65 116.331 255.532 116.688 256.214 117.311L266.133 127.03C266.913 127.745 267.509 128.639 267.869 129.636C268.229 130.632 268.343 131.702 268.2 132.752C268.057 133.803 267.662 134.802 267.049 135.666C266.436 136.53 265.623 137.231 264.679 137.71L256.573 146.335C256.406 146.512 256.206 146.653 255.983 146.749C255.76 146.845 255.52 146.895 255.278 146.895Z" fill="#2F2E41"/>
<path d="M244.228 126.161C244.151 126.161 244.074 126.156 243.997 126.146C243.662 126.105 243.346 125.969 243.086 125.753C242.826 125.537 242.633 125.252 242.53 124.929L238.915 113.817C238.824 113.536 238.838 113.231 238.954 112.96C239.07 112.688 239.28 112.468 239.545 112.34L239.662 112.284C239.769 112.234 239.874 112.184 239.982 112.136C241.667 111.352 243.502 110.943 245.36 110.937C247.773 110.941 250.131 111.652 252.146 112.981C252.417 113.162 252.605 113.441 252.672 113.76C252.739 114.078 252.678 114.41 252.503 114.684L245.721 125.336C245.562 125.589 245.342 125.797 245.081 125.942C244.82 126.086 244.526 126.161 244.228 126.161Z" fill="#E6E6E6"/>
<path d="M257.853 91.0293C259.996 91.0293 261.734 89.2868 261.734 87.1373C261.734 84.9879 259.996 83.2454 257.853 83.2454C255.709 83.2454 253.971 84.9879 253.971 87.1373C253.971 89.2868 255.709 91.0293 257.853 91.0293Z" fill="#2F2E41"/>
<path d="M244.546 82.8595C241.819 82.8595 239.204 83.9455 237.276 85.8787C235.348 87.8118 234.265 90.4337 234.265 93.1675V97.5287H239.615L242.173 93.1676L242.941 97.5287H259.176L254.827 93.1675C254.827 90.4337 253.744 87.8118 251.816 85.8787C249.888 83.9455 247.273 82.8595 244.546 82.8595Z" fill="#2F2E41"/>
<path d="M259.848 84.4715C260.277 83.1257 261.166 81.9747 262.358 81.2209C263.549 80.4671 264.968 80.1587 266.364 80.35C268.838 80.7646 270.794 82.7583 271.959 84.9851C273.125 87.2118 273.663 89.704 274.446 92.0929C275.23 94.4817 276.341 96.8836 278.319 98.4299C280.296 99.9763 283.331 100.396 285.274 98.805C285.052 100.463 284.316 102.009 283.17 103.224C282.023 104.44 280.525 105.263 278.887 105.578C277.248 105.892 275.552 105.683 274.039 104.978C272.526 104.274 271.272 103.11 270.455 101.652C269.43 99.8237 269.165 97.6808 268.861 95.6057C268.557 93.5305 268.162 91.3834 266.939 89.6823C265.715 87.9812 263.424 86.8702 261.481 87.645L259.848 84.4715Z" fill="#2F2E41"/>
<path d="M133.63 90.409C130.091 90.4086 126.698 88.9989 124.195 86.4899C121.693 83.9809 120.287 80.5781 120.287 77.0299C120.287 74.61 120.289 72.7598 120.292 72.4967C120.405 64.208 122.487 56.0656 126.366 48.745C119.993 57.4921 116.489 68.0088 116.338 78.8401C116.335 79.1032 116.333 80.9534 116.333 83.3734C116.333 86.9215 117.739 90.3243 120.241 92.8333C122.743 95.3423 126.137 96.752 129.676 96.7525C132.584 96.7513 135.412 95.7986 137.731 94.039C140.049 92.2793 141.732 89.8089 142.522 87.0032C140.079 89.1999 136.912 90.413 133.63 90.409Z" fill="#3F3D56"/>
<path d="M169.537 55.1519C173.628 55.3478 177.61 56.5363 181.142 58.6154C184.674 60.6944 187.65 63.6019 189.815 67.0882C191.979 70.5745 193.267 74.5354 193.569 78.6309C193.87 82.7263 193.176 86.8339 191.545 90.601C193.904 87.8236 195.637 84.5689 196.628 81.0589C197.618 77.5489 197.842 73.866 197.284 70.2613C196.726 66.6567 195.4 63.215 193.395 60.1709C191.39 57.1269 188.755 54.5521 185.667 52.622C182.58 50.6919 179.114 49.4519 175.506 48.9866C171.897 48.5213 168.231 48.8416 164.758 49.9256C161.284 51.0097 158.084 52.832 155.376 55.2684C152.668 57.7048 150.517 60.6979 149.067 64.0437C151.572 61.089 154.721 58.7506 158.27 57.209C161.819 55.6673 165.673 54.9635 169.537 55.1519Z" fill="#3F3D56"/>
<path d="M173.642 173.667C170.032 173.667 166.566 172.245 163.993 169.707C161.419 167.169 159.944 163.718 159.885 160.099C159.718 149.61 159.631 136.687 159.631 135.21C159.629 131.617 160.145 128.042 161.163 124.597L161.158 124.596C161.759 122.867 162.485 121.184 163.33 119.56C160.736 123.027 158.671 126.862 157.204 130.939L157.209 130.94C156.191 134.385 155.675 137.96 155.677 141.553C155.677 143.03 155.764 155.953 155.931 166.442C155.99 170.061 157.465 173.512 160.038 176.05C162.612 178.589 166.078 180.011 169.688 180.01C172.664 180.01 175.56 179.041 177.942 177.251C180.323 175.46 182.061 172.944 182.895 170.079C180.366 172.392 177.065 173.671 173.642 173.667Z" fill="#3F3D56"/>
<path d="M50.0366 230.974L54.884 230.974L57.1905 212.226L50.0354 212.226L50.0366 230.974Z" fill="#FFB8B8"/>
<path d="M64.2335 235.487L48.9978 235.488L48.9975 229.585L58.3467 229.585C59.9079 229.585 61.4052 230.207 62.5092 231.314C63.6132 232.42 64.2334 233.922 64.2335 235.487L64.2335 235.487Z" fill="#2F2E41"/>
<path d="M32.6383 230.974L37.4857 230.974L39.7922 212.226L32.6371 212.226L32.6383 230.974Z" fill="#FFB8B8"/>
<path d="M46.8352 235.487L31.5995 235.488L31.5992 229.585L40.9484 229.585C42.5096 229.585 44.0069 230.207 45.1109 231.314C46.2149 232.42 46.8351 233.922 46.8352 235.487L46.8352 235.487Z" fill="#2F2E41"/>
<path d="M36.8744 225.208L32.1393 224.958C31.8951 224.946 31.6559 224.884 31.4356 224.778C31.2152 224.672 31.0181 224.523 30.8556 224.34C30.693 224.156 30.5684 223.943 30.4889 223.711C30.4093 223.479 30.3764 223.234 30.3921 222.989L36.0516 160.163L62.114 167.214L64.625 166.528L56.7727 222.146C56.7058 222.564 56.4986 222.947 56.1852 223.231C55.8719 223.516 55.4712 223.684 55.0494 223.709L49.945 223.948C49.6897 223.962 49.4343 223.923 49.1949 223.833C48.9555 223.743 48.7373 223.605 48.554 223.426C48.3707 223.247 48.2264 223.033 48.1302 222.795C48.034 222.558 47.9879 222.303 47.995 222.047L48.9198 188.666C48.9242 188.511 48.8707 188.361 48.7699 188.244C48.6692 188.127 48.5284 188.053 48.3754 188.035C48.2225 188.017 48.0684 188.057 47.9435 188.147C47.8186 188.238 47.732 188.372 47.7007 188.523L38.7813 223.734C38.6971 224.152 38.471 224.527 38.1415 224.797C37.8121 225.066 37.3996 225.212 36.9746 225.211C36.9414 225.211 36.908 225.21 36.8744 225.208Z" fill="#2F2E41"/>
<path d="M50.9069 108.758C56.2707 108.758 60.6188 104.398 60.6188 99.0204C60.6188 93.6425 56.2707 89.2828 50.9069 89.2828C45.5432 89.2828 41.1951 93.6425 41.1951 99.0204C41.1951 104.398 45.5432 108.758 50.9069 108.758Z" fill="#FFB8B8"/>
<path d="M34.7374 127.629L35.8052 150.73L36.1912 159.134C36.2066 159.5 36.3305 159.853 36.5471 160.148C36.7636 160.443 37.063 160.666 37.4069 160.79L62.4511 169.886C62.6534 169.961 62.8678 169.999 63.0836 169.997C63.3303 169.998 63.5746 169.95 63.8022 169.854C64.0297 169.759 64.2356 169.618 64.4078 169.441C64.5799 169.264 64.7146 169.053 64.804 168.823C64.8933 168.592 64.9354 168.346 64.9277 168.099L63.9009 126.562C63.8335 123.155 62.5824 119.877 60.3632 117.295C58.144 114.713 55.0959 112.988 51.7443 112.418C51.5021 112.381 51.2556 112.344 51.0092 112.311C48.9309 112.052 46.8213 112.253 44.8289 112.9C42.8365 113.546 41.0096 114.623 39.4768 116.054C37.8896 117.517 36.6424 119.313 35.8235 121.313C35.0045 123.313 34.6337 125.469 34.7373 127.629L34.7374 127.629Z" fill="#CCCCCC"/>
<path d="M74.4147 165.276C73.8223 165.092 73.2811 164.772 72.8343 164.34C72.3875 163.909 72.0474 163.379 71.8412 162.793C71.6349 162.206 71.5683 161.579 71.6465 160.963C71.7247 160.346 71.9457 159.756 72.2917 159.24L63.799 147.917L71.1277 147.462L78.0691 158.284C78.8122 158.86 79.3293 159.68 79.5296 160.6C79.73 161.52 79.6009 162.482 79.1649 163.316C78.729 164.15 78.014 164.804 77.1454 165.162C76.2768 165.521 75.31 165.561 74.4147 165.276H74.4147Z" fill="#FFB8B8"/>
<path d="M68.4433 157.191C68.2183 157.099 68.0136 156.964 67.8412 156.792C67.6687 156.621 67.5318 156.417 67.4385 156.192L54.6435 125.627C54.3924 125.029 54.2614 124.386 54.258 123.737C54.2546 123.088 54.3788 122.444 54.6236 121.843C54.8683 121.242 55.2288 120.695 55.6844 120.234C56.14 119.773 56.6819 119.406 57.2789 119.155C57.876 118.904 58.5165 118.773 59.164 118.77C59.8116 118.767 60.4533 118.892 61.0526 119.138C61.6518 119.384 62.1969 119.746 62.6567 120.203C63.1164 120.66 63.4818 121.203 63.7319 121.802L76.5269 152.368C76.716 152.821 76.7181 153.331 76.5328 153.786C76.3474 154.24 75.9897 154.603 75.5382 154.793L69.8578 157.184C69.6342 157.279 69.394 157.328 69.1512 157.329C68.9084 157.33 68.6678 157.283 68.4433 157.191L68.4433 157.191Z" fill="#CCCCCC"/>
<path d="M47.7845 156.112L60.0738 132.519C60.3108 132.066 60.7176 131.725 61.205 131.571C61.6924 131.418 62.2206 131.465 62.6737 131.701L80.5116 141.042C80.9641 141.28 81.3042 141.688 81.4572 142.176C81.6101 142.665 81.5635 143.194 81.3275 143.649L69.0382 167.242C68.8012 167.696 68.3944 168.037 67.907 168.19C67.4196 168.343 66.8914 168.297 66.4384 168.06L48.6005 158.719C48.1479 158.482 47.8079 158.074 47.6549 157.585C47.502 157.096 47.5486 156.567 47.7845 156.112Z" fill="#3F3D56"/>
<path d="M56.0261 145.333C55.8076 144.751 55.4565 144.229 55.0008 143.807C54.545 143.385 53.9972 143.076 53.4012 142.904C52.8051 142.732 52.1773 142.703 51.5677 142.818C50.9581 142.932 50.3838 143.188 49.8904 143.565L38.1155 135.733L38.0955 143.095L49.2802 149.404C49.8976 150.114 50.7445 150.583 51.6725 150.729C52.6004 150.875 53.55 150.689 54.3548 150.204C55.1596 149.718 55.7682 148.964 56.0738 148.073C56.3794 147.183 56.3625 146.213 56.0261 145.333Z" fill="#FFB8B8"/>
<path d="M41.1386 146.989L31.5154 139.346C30.4744 138.996 29.5337 138.397 28.7742 137.602C28.0146 136.807 27.4589 135.838 27.1547 134.78C26.8504 133.722 26.8068 132.606 27.0275 131.528C27.2483 130.449 27.7267 129.44 28.4219 128.588L37.1595 117.106C37.7667 116.362 38.6206 115.862 39.5652 115.698C40.5098 115.533 41.482 115.715 42.3039 116.21C43.1259 116.704 43.7429 117.479 44.042 118.393C44.341 119.306 44.3023 120.297 43.9329 121.184L37.0194 132.523L47.1793 137.354C47.4156 137.467 47.6254 137.628 47.7948 137.828C47.9643 138.027 48.0896 138.261 48.1624 138.513C48.2352 138.764 48.2539 139.029 48.2172 139.288C48.1805 139.548 48.0893 139.797 47.9496 140.018L43.8485 146.526C43.7098 146.746 43.5267 146.934 43.311 147.078C43.0953 147.222 42.8518 147.319 42.5963 147.363C42.5861 147.365 42.5759 147.366 42.5657 147.368C42.3146 147.406 42.0585 147.392 41.813 147.327C41.5675 147.262 41.338 147.147 41.1386 146.989Z" fill="#CCCCCC"/>
<path d="M43.5683 105.541C43.5267 105.419 43.5134 105.289 43.5297 105.16C43.5459 105.032 43.5912 104.91 43.6621 104.802C43.7329 104.694 43.8275 104.604 43.9385 104.538C44.0494 104.472 44.1739 104.433 44.3024 104.423C44.5654 104.438 44.8228 104.505 45.0591 104.622C45.2953 104.739 45.5055 104.903 45.6769 105.103C46.0284 105.509 46.4375 105.862 46.8913 106.149C47.3611 106.386 47.9983 106.352 48.2661 105.9C48.5176 105.475 48.3453 104.905 48.193 104.411C47.8056 103.155 47.5888 101.852 47.5485 100.538C47.5046 99.071 47.7111 97.54 48.5211 96.3957C49.5666 94.919 51.4359 94.3584 53.205 94.399C54.9741 94.4397 56.7145 94.9872 58.4669 95.3334C59.0719 95.4529 59.783 95.514 60.1876 95.0439C60.6178 94.544 60.4598 93.735 60.2768 93.06C59.8019 91.3087 59.2981 89.498 58.1948 88.0835C57.0019 86.6138 55.2978 85.6519 53.4258 85.3915C51.6285 85.1683 49.8041 85.3759 48.1025 85.9974C45.3302 86.8735 42.8907 88.5775 41.1104 90.8813C39.2751 93.3314 38.4821 96.4103 38.9047 99.445C39.3176 102.088 40.7144 104.476 42.8137 106.127L43.5683 105.541Z" fill="#2F2E41"/>
<path d="M166.573 231.052C163.989 229.923 161.702 228.208 159.893 226.042C158.083 223.875 156.8 221.317 156.146 218.569C155.491 215.82 155.483 212.957 156.121 210.204C156.759 207.452 158.026 204.886 159.823 202.709C157.74 204.234 156.004 206.185 154.731 208.434C153.458 210.683 152.676 213.178 152.438 215.753C152.2 218.328 152.511 220.925 153.35 223.37C154.189 225.816 155.537 228.054 157.305 229.937C159.073 231.82 161.22 233.304 163.604 234.292C165.988 235.279 168.554 235.747 171.132 235.664C173.71 235.581 176.241 234.949 178.557 233.81C180.872 232.672 182.92 231.052 184.564 229.059C182 230.938 178.99 232.111 175.833 232.46C172.677 232.81 169.484 232.324 166.573 231.052Z" fill="#3F3D56"/>
</g>
<defs>
<clipPath id="clip0">
<rect width="334" height="236" fill="white"/>
</clipPath>
</defs>
</svg>
