
<svg fill="none" viewBox="0 0 708 708" xmlns="http://www.w3.org/2000/svg">
<path d="m441.25 46.827s-107.53-24.072-207.13 45.808c-99.601 69.879-144.4 190.57-183.3 287.7-38.898 97.137-7.165 187.56 74.397 220.98 81.561 33.417 131.18-35.655 241.53-51.614 110.35-15.958 141.15-4.092 229.07-75.402 87.92-71.309 95.368-216.39 16.214-313.86-79.155-97.463-170.77-113.62-170.77-113.62z" fill="#FF9F1C"/>
<path d="m441.25 46.827s-107.53-24.072-207.13 45.808c-99.601 69.879-144.4 190.57-183.3 287.7-38.898 97.137-7.165 187.56 74.397 220.98 81.561 33.417 131.18-35.655 241.53-51.614 110.35-15.958 141.15-4.092 229.07-75.402 87.92-71.309 95.368-216.39 16.214-313.86-79.155-97.463-170.77-113.62-170.77-113.62z" fill="#fff" opacity=".7"/>
<path d="m308.66 272.45-62.687 237.59 70.772-42.466 40.441 59.656-5.055-249.72-43.471-5.055z" fill="#FF9F1C"/>
<path d="m319.56 454.8-58.438 35.074 54.615-207.03 27.059 3.143 4.248 209.34-27.484-40.526z" fill="#fff"/>
<path d="m353.29 334.63-1.161-57.093-43.443-5.083-13.41 50.82c4.787 9.643 8.072 22.457 16.469 25.19 11.328 3.654 26.408-14.16 38.897-14.16 0.891 0.027 1.777 0.136 2.648 0.326z" fill="#000" opacity=".3"/>
<path d="m395.05 274.26 99.899 224.49-65.972-33.333-41.05 68.095-34.975-247.3 42.098-11.951z" fill="#FF9F1C"/>
<path d="m363.52 293.08 26.211-7.434 85.696 192.6-50.027-25.29-31.804 52.775-30.076-212.66z" fill="#fff"/>
<path d="m395.06 274.26-42.098 11.951 6.698 47.209h0.623c12.489 0 27.64 17.743 38.912 14.09 8.637-2.832 11.866-16.327 16.893-26.055l-21.028-47.195z" fill="#000" opacity=".3"/>
<path d="m486.13 212.4c0 12.489-21.707 21.396-25.375 32.653-3.78 11.682 8.411 31.619 1.331 41.347s-29.92 4.347-39.733 11.484-11.512 30.472-23.194 34.253c-11.328 3.667-26.422-14.16-38.911-14.16-12.49 0-27.627 17.757-38.898 14.16-11.682-3.781-13.48-27.173-23.194-34.253s-32.568-1.671-39.747-11.484 5.126-29.665 1.331-41.333c-3.653-11.328-25.361-20.178-25.361-32.667s21.708-21.396 25.361-32.653c3.795-11.682-8.397-31.619-1.331-41.347s29.92-4.347 39.747-11.484 11.512-30.472 23.194-34.253c11.328-3.6674 26.408 14.089 38.898 14.089 12.489 0 27.64-17.756 38.911-14.089 11.668 3.7808 13.466 27.173 23.194 34.253s32.568 1.671 39.733 11.484-5.111 29.736-1.331 41.333c3.696 11.215 25.375 20.121 25.375 32.667z" fill="#FF9F1C"/>
<path d="m472.39 212.4c0 11.13-19.343 19.059-22.656 29.099-3.384 10.407 7.476 28.164 1.175 36.816s-26.649 3.88-35.4 10.238c-8.751 6.357-10.252 27.144-20.659 30.528-10.04 3.257-23.534-12.559-34.664-12.559s-24.596 15.76-34.593 12.503c-10.408-3.384-12.008-24.214-20.674-30.529-8.665-6.315-29.028-1.487-35.4-10.238s4.56-26.408 1.19-36.816c-3.271-10.039-22.656-17.969-22.656-29.099 0-11.129 19.328-19.059 22.656-29.098 3.37-10.408-7.491-28.165-1.19-36.816 6.302-8.652 26.664-3.88 35.4-10.238 8.737-6.358 10.266-27.145 20.674-30.529 10.025-3.257 23.534 12.56 34.65 12.56 11.115 0 24.624-15.817 34.663-12.56 10.408 3.384 12.008 24.214 20.66 30.529 8.651 6.315 29.042 1.416 35.4 10.238 6.358 8.821-4.56 26.408-1.176 36.816 3.328 10.039 22.6 17.969 22.6 29.155z" fill="#fff" opacity=".6"/>
<path d="m360.24 305.86c51.645 0 93.512-41.867 93.512-93.513 0-51.645-41.867-93.512-93.512-93.512-51.646 0-93.513 41.867-93.513 93.512 0 51.646 41.867 93.513 93.513 93.513z" fill="#fff"/>
<path d="m315.68 168.5c11.172-5.494 19.994-8.623 34.31-25.686h34.89v110.96h18.224v26.069h-78.404v-26.012h19.597v-72.726l-19.597 9.219-9.02-21.821z" fill="#263238"/>
<path d="m508.64 670.45c73.371 0 132.85-11.653 132.85-26.026 0-14.374-59.478-26.026-132.85-26.026-73.37 0-132.85 11.652-132.85 26.026 0 14.373 59.479 26.026 132.85 26.026z" fill="#000" opacity=".2"/>
<path d="m631.45 313.56c-2.081-9.728-3.243-9.261-15.052-12.97-12.984-4.077-26.469-6.34-40.073-6.726-8.755-0.331-17.509 0.687-25.955 3.016 0 0-14.84 1.855-25.488 4.248-9.133 18.238 1.175 43.273 1.175 43.273s12.971 28.489 12.971 43.088-11.13 40.073-11.583 40.767-34.281 59.472-42.862 79.452-8.794 28.037-4.163 35.91c4.63 7.873 57.447 80.612 57.447 80.612s-14.16 16.214-20.617 20.391-14.571 4.828-11.739 8.312c2.832 3.483 21.537 4.857 26.635 3.696 5.098-1.162 16.68-11.328 23.392-15.973 6.712-4.644 12.744-7.887 10.195-13.678-2.548-5.792-8.113-10.89-10.421-15.576-2.308-4.687-10.663-18.069-15.293-34.749-4.63-16.681-8.1-26.635-13.438-35.669s-9.034-12.503-9.034-12.503 19.923-18.309 30.586-27.57c10.662-9.261 20.149-16.907 20.149-16.907s36.137-37.071 39.379-45.185c3.243-8.113 12.05-33.587 18.536-55.818 6.485-22.231 7.335-59.713 5.253-69.441z" fill="#FF9F1C" stroke="#263238" stroke-linecap="round" stroke-linejoin="round" stroke-width=".9672"/>
<path d="m526.06 344.37s-10.308-25.035-1.175-43.273c-2.508 0.528-4.981 1.209-7.406 2.039-8.793 3.243-51.656 21.24-56.059 23.166-4.404 1.926-12.504 8.567-10.422 15.576 2.081 7.009 5.324 9.034 20.15 9.261 14.825 0.226 54.912-6.769 54.912-6.769z" fill="#263238" stroke="#263238" stroke-linecap="round" stroke-linejoin="round" stroke-width=".9672"/>
<path d="m494.55 217.89s13.197 6.712 13.891 7.873-0.226 3.696-1.161 5.551-6.018 6.259-8.326 7.179-0.467-6.018-0.467-9.912-6.726-7.179-7.42-9.034 1.699-2.365 3.483-1.657z" fill="#fff" stroke="#263238" stroke-linecap="round" stroke-linejoin="round" stroke-width=".9672"/>
<path d="m469.29 349.47-5.084 1.416c-5.097 1.416-13.905 2.081-15.293 0.226-1.387-1.854-6.258-26.408-5.564-40.072 0.693-13.665 21.084-72.046 23.406-76.464s22.231-18.762 22.231-18.762 2.549-0.694 5.565 2.095c3.016 2.79 11.583 8.567 11.116 10.875-0.468 2.308-5.324 9.275-7.42 11.13s-5.324 0-5.324 0-2.549 4.39-5.792 5.791c-3.242 1.402-10.889-0.24-10.889-0.24s-6.244 38.926-4.403 53.808c1.84 14.882 5.564 32.2 2.832 40.54" fill="#263238"/>
<path d="m469.29 349.47-5.084 1.416c-5.097 1.416-13.905 2.081-15.293 0.226-1.387-1.854-6.258-26.408-5.564-40.072 0.693-13.665 21.084-72.046 23.406-76.464s22.231-18.762 22.231-18.762 2.549-0.694 5.565 2.095c3.016 2.79 11.583 8.567 11.116 10.875-0.468 2.308-5.324 9.275-7.42 11.13s-5.324 0-5.324 0-2.549 4.39-5.792 5.791c-3.242 1.402-10.889-0.24-10.889-0.24s-6.244 38.926-4.403 53.808c1.84 14.882 5.564 32.2 2.832 40.54" stroke="#263238" stroke-linecap="round" stroke-linejoin="round" stroke-width=".9672"/>
<path d="m487.1 245.69c3.243-1.416 5.791-5.791 5.791-5.791s3.243 1.855 5.325 0c2.081-1.855 6.952-8.808 7.419-11.13 0.468-2.322-8.113-8.1-11.115-10.875s-5.565-2.096-5.565-2.096-19.923 14.373-22.231 18.762c-0.567 1.077-2.195 5.339-4.362 11.328 3.872 2.696 8.354 4.385 13.042 4.914 0.481-3.342 0.807-5.395 0.807-5.395s7.675 1.671 10.889 0.283z" fill="#fff" stroke="#263238" stroke-linecap="round" stroke-linejoin="round" stroke-width=".9672"/>
<path d="m507.74 230.88s3.243 0.92 2.322 3.242c-0.92 2.323-4.403 4.857-6.485 4.631-2.081-0.227-2.549-3.016-1.161-5.324s4.163-3.484 5.324-2.549z" fill="#fff" stroke="#263238" stroke-linecap="round" stroke-linejoin="round" stroke-width=".9672"/>
<path d="m492.92 239.9s-1.855-2.096-0.694-3.71 3.469-0.467 3.469-0.467l-3.469-4.404" stroke="#263238" stroke-linecap="round" stroke-linejoin="round" stroke-width=".9672"/>
<path d="m520.44 409c7.241 0 13.112-5.87 13.112-13.112 0-7.241-5.871-13.112-13.112-13.112-7.242 0-13.113 5.871-13.113 13.112 0 7.242 5.871 13.112 13.113 13.112z" fill="#fff" stroke="#263238" stroke-linecap="round" stroke-linejoin="round" stroke-width=".9672"/>
<path d="m517 383.03c1.373-3.705 3.545-7.061 6.362-9.832 2.817-2.77 6.209-4.886 9.936-6.197 12.97-4.843 34.097-9.912 46.317-25.955 12.22-16.044 7.802-46.728 7.802-46.728l9.502 1.288s-1.275 30.671-7.378 46.955-24.695 25.488-39.449 28.008c-14.755 2.521-26.975 2.28-33.092 12.461z" fill="#fff" stroke="#263238" stroke-linecap="round" stroke-linejoin="round" stroke-width=".9672"/>
<path d="m517 383.03s-1.53-10.436 7.887-21.382c9.416-10.945 24.695-22.896 27.244-34.097 2.548-11.2-0.255-30.543-0.255-30.543l8.142-2.294c2.24 10.135 2.327 20.628 0.255 30.798-3.569 15.774-12.22 23.421-22.911 31.563s-20.362 25.955-20.362 25.955z" fill="#fff" stroke="#263238" stroke-linecap="round" stroke-linejoin="round" stroke-width=".9672"/>
<path d="m621.95 305.22c-2.732 2.253-4.981 5.035-6.611 8.179s-2.609 6.584-2.877 10.116c-0.934 12.05 1.147 43.782 1.147 56.3 0 12.517-9.26 31.265-7.872 40.993 1.387 9.728 14.16 21.311 21.084 13.679 6.924-7.633 12.276-32.2 14.825-63.947s0.468-53.043-3.469-59.472c-3.936-6.429-10.436-10.719-16.227-5.848z" fill="#263238" stroke="#263238" stroke-linecap="round" stroke-linejoin="round" stroke-width=".9672"/>
<path d="m629.6 424.98c-1.416 7.873-5.791 15.576-10.422 17.134-4.63 1.557-9.912-4.857-17.374-16.907s-11.328-25.248-14.16-39.153c-2.511-12.71-4.364-25.542-5.551-38.444-0.24-5.324 0-6.726 3.002-9.912s13.905-5.791 13.905-5.791l1.855-3.243c0.921-1.614 5.792-2.549 8.1-1.147s3.483 9.034 3.483 9.034 6.485 3.696 6.485 7.406-4.177 7.646-8.807 13.905-6.018 3.936-6.485 9.728c-0.468 5.791 2.832 13.438 8.566 18.762 5.735 5.324 14.16 11.809 16.454 22.231" fill="#263238"/>
<path d="m629.6 424.98c-1.416 7.873-5.791 15.576-10.422 17.134-4.63 1.557-9.912-4.857-17.374-16.907s-11.328-25.248-14.16-39.153c-2.511-12.71-4.364-25.542-5.551-38.444-0.24-5.324 0-6.726 3.002-9.912s13.905-5.791 13.905-5.791l1.855-3.243c0.921-1.614 5.792-2.549 8.1-1.147s3.483 9.034 3.483 9.034 6.485 3.696 6.485 7.406-4.177 7.646-8.807 13.905-6.018 3.936-6.485 9.728c-0.468 5.791 2.832 13.438 8.566 18.762 5.735 5.324 14.16 11.809 16.454 22.231" stroke="#263238" stroke-linecap="round" stroke-linejoin="round" stroke-width=".9672"/>
<path d="m603.61 368.81v-1.274c0.468-5.791 1.855-3.483 6.486-9.728 4.63-6.244 8.807-10.195 8.807-13.905s-6.485-7.406-6.485-7.406-1.161-7.646-3.483-9.034c-2.323-1.387-7.18-0.467-8.1 1.147l-1.869 3.243s-10.889 2.549-13.905 5.791c-3.016 3.243-3.243 4.645-3.002 9.912 0.142 3.455 1.274 12.744 2.832 22.656 6.249 1.271 12.729 0.786 18.719-1.402z" fill="#fff" stroke="#263238" stroke-linecap="round" stroke-linejoin="round" stroke-width=".9672"/>
<path d="m607.89 438.15c-27.895-9.332-62.46-13.749-78.093-15.392-1.288 3.2-2.223 5.268-2.35 5.466-0.467 0.694-34.281 59.472-42.862 79.451-8.581 19.98-8.794 28.037-4.163 35.91 4.63 7.873 57.447 80.613 57.447 80.613 8.496-1.034 16.071-6.74 19.356-9.558-0.745-1.007-1.408-2.072-1.982-3.186-2.322-4.63-10.663-18.068-15.293-34.749-4.63-16.68-8.099-26.635-13.438-35.669-5.338-9.034-9.034-12.503-9.034-12.503s19.923-18.309 30.586-27.569c10.662-9.261 20.149-16.907 20.149-16.907s36.137-37.071 39.379-45.185c0.1-0.226 0.184-0.467 0.298-0.722z" fill="#787878" stroke="#263238" stroke-linecap="round" stroke-linejoin="round" stroke-width=".9672"/>
<path d="m557.22 614.64c-2.662 5.041-13.792 14.656-13.792 14.656s-2.832-3.016-4.403-5.098c-1.232-1.572-1.657-1.175-1.799-0.878l0.638 0.878s-14.16 16.213-20.617 20.391c-6.457 4.177-14.571 4.856-11.739 8.34 2.832 3.483 21.537 4.857 26.635 3.696 5.098-1.162 16.68-11.328 23.392-15.973 6.712-4.644 12.744-7.887 10.195-13.678-2.053-4.489-5.834-8.567-8.51-12.334z" fill="#FF9F1C" stroke="#263238" stroke-linecap="round" stroke-linejoin="round" stroke-width=".9672"/>
<path d="m528.37 653.85c-4.8 1.246-17.643-1.416-23.364-2.832-0.122 0.32-0.145 0.669-0.067 1.002 0.079 0.333 0.255 0.635 0.506 0.867 2.832 3.47 21.538 4.857 26.635 3.696 5.098-1.161 16.681-11.328 23.392-15.972 6.712-4.645 12.744-7.887 10.196-13.679-0.298-0.665-0.638-1.331-1.006-1.982-1.203 1.614-2.619 3.426-4.092 5.225-4.163 5.14-25.941 22.047-32.2 23.675z" fill="#fff" stroke="#263238" stroke-linecap="round" stroke-linejoin="round" stroke-width=".9672"/>
<path d="m593.7 449.76s-20.221-18.068-39.847-24.553c-19.625-6.485-56.3-4.631-65.561-0.921-9.26 3.71-5.324 15.576-5.097 29.184 0.226 13.608 9.501 38.912 13.438 53.284 3.936 14.373 5.324 30.345 5.791 35.896 0.467 5.55 0.467 7.646 0.467 7.646s-25.714-0.226-32.44-0.92-10.649 1.416-11.81 3.71c-0.687 1.189-0.933 2.583-0.693 3.936 0 0 17.374 11.328 32.426 17.601s29.424 10.195 31.279 9.261c1.855-0.935 3.696-15.052 3.696-24.78s3.016-56.527 3.016-64.867v-21.538s44.944 23.86 62.786 18.295c17.841-5.565 16.737-52.845 16.737-52.845l-14.429-4.602" fill="#787878"/>
<path d="m593.7 449.76s-20.221-18.068-39.847-24.553c-19.625-6.485-56.3-4.631-65.561-0.921-9.26 3.71-5.324 15.576-5.097 29.184 0.226 13.608 9.501 38.912 13.438 53.284 3.936 14.373 5.324 30.345 5.791 35.896 0.467 5.55 0.467 7.646 0.467 7.646s-25.714-0.226-32.44-0.92-10.649 1.416-11.81 3.71c-0.687 1.189-0.933 2.583-0.693 3.936 0 0 17.374 11.328 32.426 17.601s29.424 10.195 31.279 9.261c1.855-0.935 3.696-15.052 3.696-24.78s3.016-56.527 3.016-64.867v-21.538s44.944 23.86 62.786 18.295c17.841-5.565 16.737-52.845 16.737-52.845l-14.429-4.602" stroke="#263238" stroke-linecap="round" stroke-linejoin="round" stroke-width=".9672"/>
<path d="m502.89 550.3s-25.714-0.226-32.44-0.92-10.649 1.416-11.81 3.71c-0.687 1.189-0.933 2.583-0.693 3.936 0 0 17.374 11.328 32.426 17.601s29.424 10.195 31.279 9.261c1.629-0.807 3.257-11.852 3.625-21.127-9.543-8.128-22.387-12.461-22.387-12.461z" fill="#FF9F1C" stroke="#263238" stroke-linecap="round" stroke-linejoin="round" stroke-width=".9672"/>
<path d="m521.65 583.89c0.723-0.354 1.416-2.832 2.068-6.118-8.084-0.591-16.04-2.351-23.619-5.225-13.098-4.941-34.437-15.321-41.715-18.903-0.491 1.056-0.644 2.238-0.439 3.384 0 0 17.374 11.328 32.426 17.601s29.424 10.181 31.279 9.261z" fill="#fff" stroke="#263238" stroke-linecap="round" stroke-linejoin="round" stroke-width=".9672"/>
<path d="m528.37 472.7s-0.226-20.149-10.422-30.118" stroke="#263238" stroke-linecap="round" stroke-linejoin="round" stroke-width=".9672"/>
<path d="m512.59 271.73s5.522 18.111 7.958 24.511c2.435 6.401 2.648 9.912 10.365 17.219s9.275 13.027 17.219 13.679c7.943 0.651 11.044-4.248 11.044-4.248s1.105 7.292 5.296 9.487c4.192 2.195 13.466 2.648 19.201-8.61 5.735-11.257 2.209-16.765 0.227-22.061-1.983-5.296-4.645-11.923-4.645-11.923 2.881-3.974 4.374-8.785 4.248-13.692-0.439-7.717-2.648-8.61-5.069-9.275-2.421-0.666-9.275 3.752-12.135 2.435-2.86-1.316 1.982-8.835-5.749-9.487-7.731-0.651-15.675 9.912-29.58 11.031s-18.89-3.257-18.38 0.934z" fill="#fff" stroke="#263238" stroke-linecap="round" stroke-linejoin="round" stroke-width=".9672"/>
<path d="m559.11 322.95 12.574-14.16c5.522-6.174 5.522-15.448 5.522-15.448" fill="#fff"/>
<path d="m559.11 322.95 12.574-14.16c5.522-6.174 5.522-15.448 5.522-15.448" stroke="#263238" stroke-linecap="round" stroke-linejoin="round" stroke-width=".9672"/>
<path d="m534.38 293.37s1.544 7.08 0 10.592c-1.543 3.511-0.226 5.31 2.422 5.522 1.267 0.216 2.569 0.064 3.752-0.439" stroke="#263238" stroke-linecap="round" stroke-linejoin="round" stroke-width=".9672"/>
<path d="m542.56 294.03s1.543-4.63 8.821-3.313" stroke="#263238" stroke-linecap="round" stroke-linejoin="round" stroke-width="1.9344"/>
<path d="m524.23 295.35s4.248-2.421 7.278 0.892" stroke="#263238" stroke-linecap="round" stroke-linejoin="round" stroke-width="1.9344"/>
<path d="m520.48 288.3s5.069-5.084 11.031 2.832" stroke="#263238" stroke-linecap="round" stroke-linejoin="round" stroke-width=".9672"/>
<path d="m538.58 288.95s2.421-8.156 9.912-7.08" stroke="#263238" stroke-linecap="round" stroke-linejoin="round" stroke-width=".9672"/>
<path d="m545.42 311.25s11.484-2.209 13.693-15.675c0 0 5.663 9.076 1.741 16.355-3.922 7.278-9.246 6.159-9.246 6.159l-6.188-6.839z" stroke="#263238" stroke-linecap="round" stroke-linejoin="round" stroke-width=".9672"/>
<path d="m520.03 246.13s5.749-7.944-0.651-6.839c-6.401 1.104-16.992 13.466-15.675 25.162 1.316 11.696 24.935 14.344 36.419 12.588 6.891-1.075 13.287-4.238 18.323-9.062 0 0-4.248 9.062 0.227 10.153 4.474 1.09 6.612 0 6.612 0s4.248 9.501 5.523 6.627c1.274-2.875-0.312-5.126 0.439-8.822 1.77-8.609 8.17-8.397 8.17-8.397s1.105-21.41-6.839-29.736-28.702-9.275-37.312-4.857c-8.609 4.418-15.236 13.183-15.236 13.183z" fill="#263238" stroke="#263238" stroke-linecap="round" stroke-linejoin="round" stroke-width=".9672"/>
<path d="m186.8 670.45c73.37 0 132.85-11.653 132.85-26.026 0-14.374-59.479-26.026-132.85-26.026-73.371 0-132.85 11.652-132.85 26.026 0 14.373 59.478 26.026 132.85 26.026z" fill="#000" opacity=".2"/>
<path d="m98.624 615.82s-17.289 8.921-24.2 16.992c-6.9101 8.072 0.8638 13.537 14.981 8.935 14.118-4.602 19.3-24.482 19.3-24.482s-4.899-4.036-10.082-1.445z" fill="#FF9F1C" stroke="#263238" stroke-linecap="round" stroke-linejoin="round" stroke-width=".9672"/>
<path d="m282.14 615.82s17.289 8.921 24.199 16.992c6.911 8.072-0.863 13.537-14.981 8.935-14.117-4.602-19.3-24.482-19.3-24.482s4.899-4.036 10.082-1.445z" fill="#FF9F1C" stroke="#263238" stroke-linecap="round" stroke-linejoin="round" stroke-width=".9672"/>
<path d="m173.26 250.5-0.213 15.363c-6.427-1.498-12.766-3.351-18.988-5.551-10.238-3.625-12.744-0.424-18.776 4.687-6.032 5.112-34.551 38.02-37.581 40.753-3.0302 2.733-12.376 16.992-12.376 24.313 0 7.32 5.7631 12.375 17.275 6.188 11.512-6.188 32.639-22.826 32.639-22.826s10.889 32.426 11.102 37.977c0.212 5.55-7.477 17.7-11.527 28.801-4.049 11.102-5.961 42.027-8.708 52.69-2.747 10.662-9.813 21.763-15.349 50.126-5.537 28.362-5.976 50.141-7.25 55.677-1.275 5.537-2.974 26.678-4.9139 43.273-1.9399 16.596-3.2002 34.975-1.062 36.901s8.3119 3.2 11.328 0 25.361-59.897 29.906-72.91 34.777-71.904 37.34-78.517 7.179-15.746 7.179-15.746 15.788 29.439 21.113 44.151c5.324 14.712 34.564 71.465 42.678 86.376 8.114 14.91 21.325 34.763 24.95 36.688 3.625 1.926 9.473 0.737 10.11-3.101 0.637-3.837-5.409-62.813-9.912-73.915-4.503-11.101-7.462-17.275-8.737-25.374-1.274-8.1-13.664-74.454-19.413-86.617-5.749-12.164-6.613-14.5-6.825-15.151-0.213-0.652-4.248-14.925-10.252-29.439s-12.574-27.513-12.574-27.513l10.875-29.863s16.001 33.063 23.463 40.101c7.462 7.037 31.789 37.325 31.789 37.325l7.675-7.674-24.738-42.48s-5.338-27.513-11.738-44.802c-6.401-17.29-11.088-30.076-19.414-33.984-8.326-3.909-26.238-4.914-29.438-6.188-3.201-1.275-2.138-2.351-2.351-2.988-0.212-0.637 1.076-14.925 1.076-14.925s-11.88 4.149-17.544 2.436c-3.695-1.185-7.308-2.609-10.818-4.262z" fill="#263238" stroke="#263238" stroke-linecap="round" stroke-linejoin="round" stroke-width=".9672"/>
<path d="m219.21 403.83-24.653 31.959" stroke="#696969" stroke-linecap="round" stroke-linejoin="round" stroke-width=".9672"/>
<path d="m140.69 406.58 27.399 28.306" stroke="#696969" stroke-linecap="round" stroke-linejoin="round" stroke-width=".9672"/>
<path d="m145.27 423 27.386 17.346" stroke="#696969" stroke-linecap="round" stroke-linejoin="round" stroke-width=".9672"/>
<path d="m214.44 357.81 10.875-29.863s-5.763-40.498-16.737-56.499c-1.915-0.212-3.81-0.582-5.664-1.104-3.2-1.275-2.138-2.351-2.351-2.988-0.212-0.637 1.076-14.925 1.076-14.925s-11.894 4.05-17.558 2.337c-3.713-1.178-7.346-2.597-10.875-4.248l-0.212 15.363s-2.832-0.637-7.25-1.855c-4.687 6.018-23.619 30.982-30.515 49.419 0 0 10.889 32.426 11.101 37.977 0.156 4.021-3.837 11.498-7.589 19.541 6.952 4.658 19.371 10.167 39.648 10.535 24.341 0.439 37.396-5.169 43.174-8.723-3.937-8.694-7.123-14.967-7.123-14.967z" fill="#FF9F1C" stroke="#263238" stroke-linecap="round" stroke-linejoin="round" stroke-width=".9672"/>
<path d="m200.02 287.45c4.248-4.135 5.551-10.408 5.48-16.511-0.881-0.118-1.749-0.322-2.591-0.608-3.2-1.275-2.138-2.351-2.351-2.988-0.212-0.637 1.076-14.925 1.076-14.925s-11.894 4.064-17.558 2.351c-3.713-1.178-7.346-2.597-10.875-4.248l-0.212 15.363s-0.892-0.198-2.436-0.58c-1.175 4.531-3.441 16.723 3.923 23.406 7.08 6.344 18.931 5.112 25.544-1.26z" fill="#B2B2B2" stroke="#263238" stroke-linecap="round" stroke-linejoin="round" stroke-width=".9672"/>
<path d="m165.15 263.73s-0.637 16.001-4.687 24.752-8.326 10.025-8.326 10.025c1.704 1.08 3.489 2.027 5.338 2.832 3.413 1.416 4.05 0.85 4.05 0.85s6.4-4.05 9.388-14.727c1.822-7.025 2.543-14.291 2.138-21.537l-7.901-2.195z" fill="#fff" stroke="#263238" stroke-linecap="round" stroke-linejoin="round" stroke-width=".9672"/>
<path d="m177.16 181.97s-0.269-7.236 12.871-10.719c13.141-3.483 24.695 6.967 25.757 13.948s-1.062 10.733-2.676 11.328c-1.614 0.594-8.581-6.443-19.045-9.912-10.464-3.47-18.252-1.416-16.907-4.645z" fill="#263238" stroke="#263238" stroke-linecap="round" stroke-linejoin="round" stroke-width=".9672"/>
<path d="m163.73 217.13s-1.6-4.828-5.664-1.883-2.152 12.079-0.269 14.755 5.664 2.69 6.429 0.807c0.764-1.883 0.807-12.617 0.807-12.617" fill="#B2B2B2"/>
<path d="m163.73 217.13s-1.6-4.828-5.664-1.883-2.152 12.079-0.269 14.755 5.664 2.69 6.429 0.807c0.764-1.883 0.807-12.617 0.807-12.617" stroke="#263238" stroke-linecap="round" stroke-linejoin="round" stroke-width=".9672"/>
<path d="m163.21 193.78s-4.574 6.711-2.421 13.423c2.152 6.712 1.076 11.526 1.076 19.314s5.664 18.239 9.388 24.681c3.724 6.443 11.243 14.09 19.286 11.682 8.043-2.407 19.824-19.201 22.033-26.974 2.209-7.774 1.345-9.658 2.676-12.886 2.264-5.714 3.362-11.824 3.229-17.969 0-8.85-10.465-20.66-23.35-24.412-12.886-3.752-27.088 0-31.917 13.141z" fill="#B2B2B2" stroke="#263238" stroke-linecap="round" stroke-linejoin="round" stroke-width=".9672"/>
<path d="m212.03 224.9s2.152-6.442 6.174-4.559c4.021 1.883 2.407 11.809-0.808 14.755-3.214 2.945-6.711 1.614-6.711-0.269" fill="#B2B2B2"/>
<path d="m212.03 224.9s2.152-6.442 6.174-4.559c4.021 1.883 2.407 11.809-0.808 14.755-3.214 2.945-6.711 1.614-6.711-0.269" stroke="#263238" stroke-linecap="round" stroke-linejoin="round" stroke-width=".9672"/>
<path d="m181.72 233.48c1.308 1.299 3.061 2.05 4.903 2.1s3.633-0.605 5.009-1.831" stroke="#263238" stroke-linecap="round" stroke-linejoin="round" stroke-width=".9672"/>
<path d="m179.36 239.76s6.499 5.664 15.448-0.127" stroke="#263238" stroke-linecap="round" stroke-linejoin="round" stroke-width=".9672"/>
<path d="m177.4 227c1.087 0 1.969-1.426 1.969-3.186s-0.882-3.186-1.969-3.186-1.968 1.426-1.968 3.186 0.881 3.186 1.968 3.186z" fill="#263238"/>
<path d="m196.53 227c1.087 0 1.968-1.426 1.968-3.186s-0.881-3.186-1.968-3.186-1.969 1.426-1.969 3.186 0.882 3.186 1.969 3.186z" fill="#263238"/>
<path d="m172 215.97c1.294-1.158 2.88-1.941 4.587-2.265 1.706-0.324 3.469-0.178 5.098 0.425" stroke="#263238" stroke-linecap="round" stroke-linejoin="round" stroke-width=".9672"/>
<path d="m191.74 214.86s7.235-3.186 11.158 3.186" stroke="#263238" stroke-linecap="round" stroke-linejoin="round" stroke-width=".9672"/>
<path d="m195.12 180.64c-12.872-3.766-27.088 0-31.917 13.141 0 0-4.574 6.711-2.421 13.423 0.684 2.131 1.103 4.337 1.246 6.571l0.368 0.396c1.608-1.802 2.635-4.048 2.945-6.443 0.538-4.021 9.388-14.16 23.888-13.14 14.5 1.019 21.453 11.328 22.798 17.983s-2.138 11.526 3.214 10.45c2.264-5.714 3.362-11.824 3.229-17.969 0-8.85-10.465-20.659-23.35-24.412z" fill="#263238" stroke="#263238" stroke-linecap="round" stroke-linejoin="round" stroke-width=".9672"/>
<path d="m288.24 397.7 13.863 2.832c1.119 0.221 2.123 0.833 2.832 1.727 2.336 2.931 7.575 9.657 8.071 11.64 0.637 2.563 0.637 3.2-0.213 3.2-1.147-0.049-2.288-0.191-3.412-0.425-1.076-0.212-5.126-5.975-8.326-6.188-3.129-0.477-6.203-1.265-9.176-2.35 0 0 6.825 5.126 8.326 6.4s1.275 1.926 0.213 2.351c-1.062 0.424-2.563-0.213-4.05-0.85s-2.138-0.864-7.264-2.988-8.496-7.689-8.496-7.689l7.632-7.66z" fill="#B2B2B2" stroke="#263238" stroke-linecap="round" stroke-linejoin="round" stroke-width=".9672"/>
<path d="m233.85 305.12-8.538 22.826 7.675-13.651" stroke="#696969" stroke-linecap="round" stroke-linejoin="round" stroke-width=".9672"/>
<path d="m135.28 288.26v25.177l-4.262-18.338" stroke="#696969" stroke-linecap="round" stroke-linejoin="round" stroke-width=".9672"/>
<path d="m177.52 305.33c1.11 0.763 2.366 1.289 3.689 1.545s2.685 0.236 4-0.058c4.248-1.062 15.774-9.388 22.826-18.776 7.051-9.388 10.237-14.755 10.237-14.755l-11.328-3.413s-5.975 16.214-13.862 23.251c-7.887 7.038-19.626 10.45-19.626 10.45l4.064 1.756z" fill="#fff" stroke="#263238" stroke-linecap="round" stroke-linejoin="round" stroke-width=".9672"/>
<path d="m124.84 229.16s50.352 74.879 52.689 76.167c1.108 0.624 2.247 1.191 3.412 1.699 0 0-11.936 0-15.349-2.832s-30.727-53.539-33.078-59.089c-1.898-4.238-4.035-8.366-6.4-12.362l-2.124-4.064 0.85 0.481z" fill="#fff" stroke="#263238" stroke-linecap="round" stroke-linejoin="round" stroke-width=".9672"/>
<path d="m124.84 229.16s20.914 60.166 22.656 64.428c1.741 4.263 7.674 7.689 10.874 8.114l3.201 0.425s-15.137-24.752-21.75-39.648-14.981-33.319-14.981-33.319z" fill="#fff" stroke="#263238" stroke-linecap="round" stroke-linejoin="round" stroke-width=".9672"/>
<path d="m119.18 231.74c7.249 0 13.126-5.877 13.126-13.127 0-7.249-5.877-13.126-13.126-13.126-7.25 0-13.127 5.877-13.127 13.126 0 7.25 5.877 13.127 13.127 13.127z" fill="#fff" stroke="#263238" stroke-linecap="round" stroke-linejoin="round" stroke-width=".9672"/>
<path d="m106.92 333.7c-6.825 3.639-20.277 12.163-22.826 8.326-2.5488-3.838-2.1382-25.602 4.0497-38.615s17.346-36.278 17.7-40.271-0.538-30.458-0.17-31.548 11.413-7.08 11.413-7.08c0.582-0.144 1.194-0.099 1.749 0.128 0.554 0.226 1.023 0.622 1.338 1.132 1.09 1.813 5.99 7.08 5.806 8.496-0.185 1.416-0.369 2.535-0.369 2.535s2.903 1.642 2.181 4.361-1.997 11.059-3.625 12.149c-1.355 0.654-2.888 0.844-4.361 0.538-0.182 1.974-0.735 3.895-1.629 5.664-1.26 1.997-2.534 3.087-2.718 3.625s-4.064 63.31-6.202 65.448" fill="#263238"/>
<path d="m106.92 333.7c-6.825 3.639-20.277 12.163-22.826 8.326-2.5488-3.838-2.1382-25.602 4.0497-38.615s17.346-36.278 17.7-40.271-0.538-30.458-0.17-31.548 11.413-7.08 11.413-7.08c0.582-0.144 1.194-0.099 1.749 0.128 0.554 0.226 1.023 0.622 1.338 1.132 1.09 1.813 5.99 7.08 5.806 8.496-0.185 1.416-0.369 2.535-0.369 2.535s2.903 1.642 2.181 4.361-1.997 11.059-3.625 12.149c-1.355 0.654-2.888 0.844-4.361 0.538-0.182 1.974-0.735 3.895-1.629 5.664-1.26 1.997-2.534 3.087-2.718 3.625s-4.064 63.31-6.202 65.448" stroke="#263238" stroke-linecap="round" stroke-linejoin="round" stroke-width=".9672"/>
<path d="m125.61 236.84s0.184-1.076 0.369-2.534c0.184-1.459-4.716-6.712-5.806-8.496-0.315-0.51-0.784-0.907-1.338-1.133-0.555-0.226-1.167-0.271-1.749-0.128 0 0-11.059 5.976-11.413 7.08-0.354 1.105 0.368 22.586 0.255 29.736 1.31 1.067 2.855 1.806 4.507 2.155 1.653 0.35 3.365 0.301 4.994-0.144v-0.241c0.184-0.538 1.416-1.628 2.719-3.625 0.894-1.769 1.446-3.69 1.628-5.664 1.474 0.306 3.007 0.117 4.362-0.538 1.628-1.09 2.832-9.43 3.625-12.149s-2.153-4.319-2.153-4.319z" fill="#B2B2B2" stroke="#263238" stroke-linecap="round" stroke-linejoin="round" stroke-width=".9672"/>
<path d="m125.61 236.84-9.246-3.625" stroke="#263238" stroke-linecap="round" stroke-linejoin="round" stroke-width=".9672"/>
<path d="m115.28 238.3s9.614 2.166 10.52 3.625c0.567 0.994 0.878 2.113 0.907 3.256" stroke="#263238" stroke-linecap="round" stroke-linejoin="round" stroke-width=".9672"/>
<path d="m115.83 243.55s7.25 1.628 8.34 2.535c1.09 0.906 1.26 4.715 1.26 4.715" stroke="#263238" stroke-linecap="round" stroke-linejoin="round" stroke-width=".9672"/>
<path d="m119.81 253.89v-2.903l1.996-0.184" stroke="#263238" stroke-linecap="round" stroke-linejoin="round" stroke-width=".9672"/>
<path d="m177.31 382.99-2.563 34.975 4.063 0.637s0-36.901-1.5-35.612z" fill="#fff" stroke="#263238" stroke-linecap="round" stroke-linejoin="round" stroke-width=".9672"/>
<path d="m179.83 384.26 1.274 38.827 6.401-0.213-6.188-38.232s-1.02-3.582-1.487-0.382z" fill="#fff" stroke="#263238" stroke-linecap="round" stroke-linejoin="round" stroke-width=".9672"/>
<path d="m288.62 73.236 7.279 7.2074 4.021-6.3861-11.3-0.8213z" fill="#9C9C9C"/>
<path d="m197.5 85.342 7.278 7.1933 4.021-6.3862-11.299-0.8071z" fill="#9C9C9C"/>
<path d="m140.21 56.031 7.279 7.2075 4.021-6.4004-11.3-0.8071z" fill="#9C9C9C"/>
<path d="m370.76 112.01-4.573 9.161 7.321 1.827-2.748-10.988z" fill="#9C9C9C"/>
<path d="m440.56 47.153-4.574 9.1616 7.321 1.8266-2.747-10.988z" fill="#9C9C9C"/>
<path d="m289.16 127.16-7.122-7.363-4.149 6.301 11.271 1.062z" fill="#FF9F1C"/>
<path d="m247.42 129.89-7.109-7.364-4.163 6.302 11.272 1.062z" fill="#FF9F1C"/>
<path d="m337.35 97.081 8.326-5.9614-5.622-5.0409-2.704 11.002z" fill="#FF9F1C"/>
<path d="m243.6 67.416 8.326-5.9472-5.622-5.0551-2.704 11.002z" fill="#FF9F1C"/>
<path d="m402.96 120.49 8.326-5.947-5.621-5.055-2.705 11.002z" fill="#FF9F1C"/>
<path d="m69.653 125.4-4.5737 9.147 7.3207 1.841-2.747-10.988z" fill="#9C9C9C"/>
<path d="m116.18 132.24-4.574 9.162 7.321 1.826-2.747-10.988z" fill="#9C9C9C"/>
<path d="m90.695 100.85-7.1225-7.3637-4.163 6.3012 11.286 1.0625z" fill="#FF9F1C"/>
<path d="m285.9 173.08 8.34-5.948-5.622-5.055-2.718 11.003z" fill="#FF9F1C"/>
<path d="m507.76 101.68 7.278 7.193 4.021-6.386-11.299-0.807z" fill="#9C9C9C"/>
<path d="m589.92 120.37-4.588 9.162 7.335 1.826-2.747-10.988z" fill="#9C9C9C"/>
<path d="m479.06 71.933-4.573 9.1615 7.32 1.8408-2.747-11.002z" fill="#9C9C9C"/>
<path d="m636.45 127.21-4.588 9.161 7.335 1.841-2.747-11.002z" fill="#9C9C9C"/>
<path d="m659.71 92.323-4.587 9.1618 7.334 1.826-2.747-10.988z" fill="#9C9C9C"/>
<path d="m508.32 135.51-7.123-7.363-4.163 6.315 11.286 1.048z" fill="#FF9F1C"/>
<path d="m466.57 138.26-7.122-7.363-4.163 6.301 11.285 1.062z" fill="#FF9F1C"/>
<path d="m555.12 68.676 8.326-5.9472-5.622-5.0551-2.704 11.002z" fill="#FF9F1C"/>
<path d="m462.75 59.061 8.326-5.9614-5.622-5.0409-2.704 11.002z" fill="#FF9F1C"/>
<path d="m600.28 80.386 8.326-5.9472-5.622-5.041-2.704 10.988z" fill="#FF9F1C"/>
<path d="m505.06 181.45 8.326-5.961-5.621-5.041-2.705 11.002z" fill="#FF9F1C"/>
<path d="m167.14 120.46 8.326-5.947-5.622-5.055-2.704 11.002z" fill="#FF9F1C"/>
<path d="m438.92 230.71-7.279-7.208-4.021 6.387 11.3 0.821z" fill="#9C9C9C"/>
<path d="m509.39 225.91-7.278-7.194-4.022 6.387 11.3 0.807z" fill="#9C9C9C"/>
<path d="m589.58 235.04-7.278-7.208-4.022 6.401 11.3 0.807z" fill="#9C9C9C"/>
<path d="m356.76 212 4.588-9.162-7.335-1.827 2.747 10.989z" fill="#9C9C9C"/>
<path d="m310.23 205.16 4.588-9.161-7.335-1.827 2.747 10.988z" fill="#9C9C9C"/>
<path d="m540.33 221.5 7.122 7.363 4.163-6.315-11.285-1.048z" fill="#FF9F1C"/>
<path d="m337.19 207.94-8.326 5.947 5.622 5.041 2.704-10.988z" fill="#FF9F1C"/>
<path d="m341.3 175.09-8.326 5.962 5.622 5.041 2.704-11.003z" fill="#FF9F1C"/>
<path d="m657.89 198.62 4.573-9.161-7.334-1.827 2.761 10.988z" fill="#9C9C9C"/>
<path d="m611.34 191.78 4.588-9.161-7.335-1.827 2.747 10.988z" fill="#9C9C9C"/>
<path d="m638.3 194.56-8.327 5.948 5.622 5.041 2.705-10.989z" fill="#FF9F1C"/>
<path d="m243.3 175.47-7.278-7.208-4.022 6.401 11.3 0.807z" fill="#9C9C9C"/>
<path d="m137.62 203.64 4.574-9.147-7.321-1.841 2.747 10.988z" fill="#9C9C9C"/>
<path d="m91.091 196.8 4.5736-9.162-7.3207-1.826 2.7471 10.988z" fill="#9C9C9C"/>
<path d="m67.826 231.7 4.5736-9.161-7.3207-1.827 2.7471 10.988z" fill="#9C9C9C"/>
<path d="m116.58 228.19 7.123 7.364 4.163-6.302-11.286-1.062z" fill="#FF9F1C"/>
<path d="m264.79 228.16-8.326 5.961 5.622 5.041 2.704-11.002z" fill="#FF9F1C"/>
<path d="m122.16 166.72-8.34 5.961 5.622 5.041 2.718-11.002z" fill="#FF9F1C"/>
<path d="m547 170.1-8.326 5.947 5.621 5.041 2.705-10.988z" fill="#FF9F1C"/>
<path d="m218.14 265.39 7.278 7.207 4.022-6.386-11.3-0.821z" fill="#9C9C9C"/>
<path d="m137.95 256.27 7.278 7.193 4.021-6.386-11.299-0.807z" fill="#9C9C9C"/>
<path d="m370.76 279.29-4.573 9.161 7.321 1.827-2.748-10.988z" fill="#9C9C9C"/>
<path d="m151.67 327.11-4.574 9.162 7.321 1.826-2.747-10.988z" fill="#9C9C9C"/>
<path d="m289.16 294.44-7.122-7.363-4.149 6.301 11.271 1.062z" fill="#FF9F1C"/>
<path d="m247.42 297.18-7.109-7.363-4.163 6.301 11.272 1.062z" fill="#FF9F1C"/>
<path d="m187.21 269.8-7.122-7.363-4.163 6.301 11.285 1.062z" fill="#FF9F1C"/>
<path d="m391.81 254.75-7.122-7.364-4.163 6.302 11.285 1.062z" fill="#FF9F1C"/>
<path d="m337.35 264.37 8.326-5.961-5.622-5.041-2.704 11.002z" fill="#FF9F1C"/>
<path d="m390.35 283.37 8.326-5.961-5.622-5.041-2.704 11.002z" fill="#FF9F1C"/>
<path d="m386.24 316.22 8.326-5.961-5.621-5.041-2.705 11.002z" fill="#FF9F1C"/>
<path d="m69.653 292.67-4.5737 9.162 7.3207 1.84-2.747-11.002z" fill="#9C9C9C"/>
<path d="m116.18 299.53-4.574 9.162 7.321 1.827-2.747-10.989z" fill="#9C9C9C"/>
<path d="m90.695 268.13-7.1225-7.363-4.163 6.301 11.286 1.062z" fill="#FF9F1C"/>
<path d="m89.236 296.75 8.3261-5.961-5.6215-5.041-2.7046 11.002z" fill="#FF9F1C"/>
<path d="m285.9 340.36 8.34-5.961-5.622-5.041-2.718 11.002z" fill="#FF9F1C"/>
<path d="m437.29 273.76 7.278 7.208 4.022-6.401-11.3-0.807z" fill="#9C9C9C"/>
<path d="m589.92 287.66-4.588 9.162 7.335 1.827-2.747-10.989z" fill="#9C9C9C"/>
<path d="m636.45 294.5-4.588 9.161 7.335 1.841-2.747-11.002z" fill="#9C9C9C"/>
<path d="m659.71 259.61-4.587 9.162 7.334 1.827-2.747-10.989z" fill="#9C9C9C"/>
<path d="m466.57 305.54-7.122-7.364-4.163 6.302 11.285 1.062z" fill="#FF9F1C"/>
<path d="m452.77 464.15-7.122-7.364-4.149 6.302 11.271 1.062z" fill="#FF9F1C"/>
<path d="m371.73 51.443 8.326-5.9614-5.621-5.0409-2.705 11.002z" fill="#FF9F1C"/>
<path d="m505.06 348.73 8.326-5.962-5.621-5.041-2.705 11.003z" fill="#FF9F1C"/>
<path d="m180.53 321.2 8.34-5.961-5.621-5.041-2.719 11.002z" fill="#FF9F1C"/>
<path d="m509.39 393.2-7.278-7.193-4.022 6.386 11.3 0.807z" fill="#9C9C9C"/>
<path d="m356.76 379.29 4.588-9.162-7.335-1.826 2.747 10.988z" fill="#9C9C9C"/>
<path d="m310.23 372.45 4.588-9.162-7.335-1.827 2.747 10.989z" fill="#9C9C9C"/>
<path d="m438.36 364.15 7.123 7.363 4.163-6.301-11.286-1.062z" fill="#FF9F1C"/>
<path d="m480.11 361.42 7.123 7.363 4.163-6.315-11.286-1.048z" fill="#FF9F1C"/>
<path d="m540.33 494.1 7.122 7.363 4.163-6.301-11.285-1.062z" fill="#FF9F1C"/>
<path d="m390.19 394.23-8.326 5.961 5.621 5.041 2.705-11.002z" fill="#FF9F1C"/>
<path d="m341.3 342.38-8.326 5.961 5.622 5.041 2.704-11.002z" fill="#FF9F1C"/>
<path d="m657.89 471.23 4.573-9.162-7.334-1.827 2.761 10.989z" fill="#9C9C9C"/>
<path d="m611.34 359.07 4.588-9.161-7.335-1.827 2.747 10.988z" fill="#9C9C9C"/>
<path d="m638.3 467.15-8.327 5.961 5.622 5.041 2.705-11.002z" fill="#FF9F1C"/>
<path d="m441.62 318.22-8.326 5.961 5.622 5.041 2.704-11.002z" fill="#FF9F1C"/>
<path d="m290.25 384.84-7.279-7.207-4.021 6.386 11.3 0.821z" fill="#9C9C9C"/>
<path d="m137.62 370.92 4.574-9.147-7.321-1.841 2.747 10.988z" fill="#9C9C9C"/>
<path d="m248.48 382.56 4.573-9.162-7.32-1.826 2.747 10.988z" fill="#9C9C9C"/>
<path d="m91.091 364.08 4.5736-9.147-7.3207-1.841 2.7471 10.988z" fill="#9C9C9C"/>
<path d="m67.826 398.99 4.5736-9.161-7.3207-1.827 2.7471 10.988z" fill="#9C9C9C"/>
<path d="m260.97 353.05 7.122 7.363 4.149-6.301-11.271-1.062z" fill="#FF9F1C"/>
<path d="m116.58 395.48 7.123 7.363 4.163-6.301-11.286-1.062z" fill="#FF9F1C"/>
<path d="m171.05 385.86-8.326 5.961 5.621 5.041 2.705-11.002z" fill="#FF9F1C"/>
<path d="m198.85 536.71-8.326 5.961 5.621 5.041 2.705-11.002z" fill="#FF9F1C"/>
<path d="m362.17 468.72-8.326 5.962 5.622 5.041 2.704-11.003z" fill="#FF9F1C"/>
<path d="m547 337.38-8.326 5.962 5.621 5.041 2.705-11.003z" fill="#FF9F1C"/>
<path d="m288.62 547.34 7.279 7.207 4.021-6.4-11.3-0.807z" fill="#9C9C9C"/>
<path d="m132.96 482.46 7.279 7.193 4.021-6.386-11.3-0.807z" fill="#9C9C9C"/>
<path d="m370.76 566.03-4.573 9.161 7.321 1.827-2.748-10.988z" fill="#9C9C9C"/>
<path d="m259.92 436.62-4.588 9.161 7.335 1.827-2.747-10.988z" fill="#9C9C9C"/>
<path d="m417.3 572.88-4.573 9.148 7.32 1.841-2.747-10.989z" fill="#9C9C9C"/>
<path d="m440.56 537.98-4.574 9.161 7.321 1.827-2.747-10.988z" fill="#9C9C9C"/>
<path d="m289.16 581.18-7.122-7.363-4.149 6.301 11.271 1.062z" fill="#FF9F1C"/>
<path d="m182.21 496-7.108-7.364-4.163 6.302 11.271 1.062z" fill="#FF9F1C"/>
<path d="m337.35 551.11 8.326-5.961-5.622-5.041-2.704 11.002z" fill="#FF9F1C"/>
<path d="m386.24 602.96 8.326-5.961-5.621-5.041-2.705 11.002z" fill="#FF9F1C"/>
<path d="m64.669 518.86-4.5879 9.161 7.3349 1.827-2.747-10.988z" fill="#9C9C9C"/>
<path d="m111.2 525.7-4.573 9.162 7.321 1.84-2.748-11.002z" fill="#9C9C9C"/>
<path d="m85.696 494.33-7.1083-7.364-4.163 6.302 11.271 1.062z" fill="#FF9F1C"/>
<path d="m285.9 637.17 8.34-5.947-5.622-5.056-2.718 11.003z" fill="#FF9F1C"/>
<path d="m507.76 437.93 7.278 7.208 4.021-6.401-11.299-0.807z" fill="#9C9C9C"/>
<path d="m589.92 561.94-4.588 9.161 7.335 1.827-2.747-10.988z" fill="#9C9C9C"/>
<path d="m479.06 444.99-4.573 9.162 7.32 1.826-2.747-10.988z" fill="#9C9C9C"/>
<path d="m636.45 568.78-4.588 9.161 7.335 1.827-2.747-10.988z" fill="#9C9C9C"/>
<path d="m659.71 533.89-4.587 9.147 7.334 1.841-2.747-10.988z" fill="#9C9C9C"/>
<path d="m466.57 592.27-7.122-7.349-4.163 6.302 11.285 1.047z" fill="#FF9F1C"/>
<path d="m610.95 537.39-7.108-7.363-4.163 6.301 11.271 1.062z" fill="#FF9F1C"/>
<path d="m556.49 547 8.326-5.962-5.621-5.04-2.705 11.002z" fill="#FF9F1C"/>
<path d="m605.38 598.86 8.326-5.962-5.622-5.041-2.704 11.003z" fill="#FF9F1C"/>
<path d="m505.06 645.54 8.326-5.961-5.621-5.041-2.705 11.002z" fill="#FF9F1C"/>
<path d="m148.45 588.26 8.327-5.961-5.622-5.041-2.705 11.002z" fill="#FF9F1C"/>
<path d="m288.62 656.57 7.279 1.544 4.021-1.374-11.3-0.17z" fill="#9C9C9C"/>
<path d="m218.14 627.64 7.278 1.558 4.022-1.374-11.3-0.184z" fill="#9C9C9C"/>
<path d="m137.95 625.69 7.278 1.543 4.021-1.373-11.299-0.17z" fill="#9C9C9C"/>
<path d="m370.76 630.63-4.573 1.968 7.321 0.397-2.748-2.365z" fill="#9C9C9C"/>
<path d="m259.92 628.14-4.588 1.968 7.335 0.396-2.747-2.364z" fill="#9C9C9C"/>
<path d="m417.3 632.1-4.573 1.969 7.32 0.396-2.747-2.365z" fill="#9C9C9C"/>
<path d="m440.56 624.61-4.574 1.968 7.321 0.397-2.747-2.365z" fill="#9C9C9C"/>
<path d="m270.34 652.64-7.109-1.586-4.163 1.359 11.272 0.227z" fill="#FF9F1C"/>
<path d="m247.42 634.47-7.109-1.571-4.163 1.345 11.272 0.226z" fill="#FF9F1C"/>
<path d="m187.21 628.59-7.122-1.572-4.163 1.345 11.285 0.227z" fill="#FF9F1C"/>
<path d="m391.81 625.36-7.122-1.571-4.163 1.345 11.285 0.226z" fill="#FF9F1C"/>
<path d="m337.35 627.43 8.326-1.275-5.622-1.09-2.704 2.365z" fill="#FF9F1C"/>
<path d="m243.6 625.38 8.326-1.288-5.622-1.076-2.704 2.364z" fill="#FF9F1C"/>
<path d="m390.35 631.51 8.326-1.275-5.622-1.09-2.704 2.365z" fill="#FF9F1C"/>
<path d="m386.24 638.56 8.326-1.274-5.621-1.09-2.705 2.364z" fill="#FF9F1C"/>
<path d="m69.653 633.5-4.5737 1.969 7.3207 0.396-2.747-2.365z" fill="#9C9C9C"/>
<path d="m116.18 634.98-4.574 1.968 7.321 0.397-2.747-2.365z" fill="#9C9C9C"/>
<path d="m73.136 649.89-7.1225-1.571-4.163 1.359 11.286 0.212z" fill="#FF9F1C"/>
<path d="m104.67 653.63 8.326-1.275-5.622-1.09-2.704 2.365z" fill="#FF9F1C"/>
<path d="m85.13 641.43 8.3261-1.275-5.6215-1.09-2.7046 2.365z" fill="#FF9F1C"/>
<path d="m285.9 643.74 8.34-1.274-5.622-1.091-2.718 2.365z" fill="#FF9F1C"/>
<path d="m507.76 628.42 7.278 1.543 4.021-1.373-11.299-0.17z" fill="#9C9C9C"/>
<path d="m437.29 629.44 7.278 1.558 4.022-1.373-11.3-0.185z" fill="#9C9C9C"/>
<path d="m589.92 632.43-4.588 1.968 7.335 0.397-2.747-2.365z" fill="#9C9C9C"/>
<path d="m479.06 629.94-4.573 1.968 7.32 0.382-2.747-2.35z" fill="#9C9C9C"/>
<path d="m636.45 633.9-4.588 1.968 7.335 0.396-2.747-2.364z" fill="#9C9C9C"/>
<path d="m388.13 651.26-4.574 1.968 7.321 0.397-2.747-2.365z" fill="#9C9C9C"/>
<path d="m659.71 626.41-4.587 1.968 7.334 0.397-2.747-2.365z" fill="#9C9C9C"/>
<path d="m508.32 635.68-7.123-1.586-4.163 1.359 11.286 0.227z" fill="#FF9F1C"/>
<path d="m466.57 636.27-7.122-1.572-4.163 1.345 11.285 0.227z" fill="#FF9F1C"/>
<path d="m640.44 652.86-7.109-1.586-4.163 1.359 11.272 0.227z" fill="#FF9F1C"/>
<path d="m610.95 627.16-7.108-1.586-4.163 1.359 11.271 0.227z" fill="#FF9F1C"/>
<path d="m556.49 629.23 8.326-1.289-5.621-1.076-2.705 2.365z" fill="#FF9F1C"/>
<path d="m462.75 627.18 8.326-1.289-5.622-1.076-2.704 2.365z" fill="#FF9F1C"/>
<path d="m609.49 633.31 8.326-1.274-5.622-1.091-2.704 2.365z" fill="#FF9F1C"/>
<path d="m605.38 640.36 8.326-1.275-5.622-1.09-2.704 2.365z" fill="#FF9F1C"/>
<path d="m554.7 663.99-4.588 1.968 7.335 0.397-2.747-2.365z" fill="#9C9C9C"/>
<path d="m601.23 665.46-4.574 1.969 7.321 0.396-2.747-2.365z" fill="#9C9C9C"/>
<path d="m575.73 658.72-7.109-1.586-4.163 1.36 11.272 0.226z" fill="#FF9F1C"/>
<path d="m574.27 664.87 8.326-1.275-5.621-1.09-2.705 2.365z" fill="#FF9F1C"/>
<path d="m570.17 671.92 8.326-1.274-5.622-1.09-2.704 2.364z" fill="#FF9F1C"/>
<path d="m436.1 660.48 8.326-1.289-5.622-1.076-2.704 2.365z" fill="#FF9F1C"/>
<path d="m180.53 639.64 8.34-1.289-5.621-1.076-2.719 2.365z" fill="#FF9F1C"/>
<path d="m156.33 649.72 7.279 1.543 4.021-1.374-11.3-0.169z" fill="#9C9C9C"/>
<path d="m185.61 656.54-7.108-1.572-4.163 1.345 11.271 0.227z" fill="#FF9F1C"/>
<path d="m125.4 650.67-7.122-1.586-4.164 1.36 11.286 0.226z" fill="#FF9F1C"/>
<path d="m118.72 661.71 8.34-1.288-5.622-1.077-2.718 2.365z" fill="#FF9F1C"/>
</svg>
